<svg width="55" height="59" viewBox="0 0 55 59" fill="none" xmlns="http://www.w3.org/2000/svg">
<path d="M54.3797 29.3263C54.3337 29.3083 54.3147 29.3043 54.3117 29.3073C54.3087 29.3103 54.3567 29.3423 54.3567 29.3383C54.4207 29.3702 54.4877 29.3956 54.5567 29.4143C54.5719 29.4156 54.5869 29.4183 54.6017 29.4223C54.4977 29.3783 54.4257 29.3443 54.3797 29.3263Z" fill="#1D1D1B"/>
<path d="M50.22 28.7202L49.627 28.6802L50.148 28.7272L50.22 28.7202Z" fill="#1D1D1B"/>
<path d="M48.5377 28.5031L48.8447 28.4921C48.0387 28.3831 46.9897 28.2451 46.4287 28.1191C47.0889 28.2706 47.7564 28.3878 48.4287 28.4701L48.5377 28.5031Z" fill="#1D1D1B"/>
<path d="M43.056 27.6281L42.976 27.6031C42.897 27.5871 42.789 27.5611 42.606 27.5151C42.719 27.5701 42.18 27.4431 43.056 27.6281Z" fill="#1D1D1B"/>
<path d="M42.9996 27.6063C42.7526 27.5283 43.3836 27.6893 42.9996 27.6063V27.6063Z" fill="#1D1D1B"/>
<path d="M40.9405 27.1443L41.4405 27.2593C41.3405 27.2143 40.8995 27.0873 41.0675 27.1223C40.5595 26.9883 40.6595 27.0313 40.9405 27.1443Z" fill="#1D1D1B"/>
<path d="M40.335 27.0483L40.595 27.1163C40.5118 27.082 40.4243 27.0591 40.335 27.0483Z" fill="#1D1D1B"/>
<path d="M41.2425 27.2573C41.0575 27.2133 40.8725 27.1713 40.6895 27.1213C40.7639 27.1706 40.8524 27.1941 40.9415 27.1883C40.8905 27.1963 41.0045 27.2073 41.2425 27.2573Z" fill="#1D1D1B"/>
<path d="M41.8868 27.4541C42.1001 27.5253 42.3215 27.569 42.5458 27.5841C42.5128 27.5631 42.2378 27.4921 41.7568 27.3701C42.0348 27.4571 42.3958 27.5601 41.8868 27.4541Z" fill="#1D1D1B"/>
<path d="M46.9431 28.2772C46.7741 28.2612 46.2041 28.1232 46.2241 28.1492L46.6051 28.2422L46.9431 28.2772Z" fill="#1D1D1B"/>
<path d="M37.4003 25.8993C37.3653 25.8993 37.5343 26.0153 37.5623 26.0463L37.9123 26.1923C37.7337 26.1091 37.5625 26.0111 37.4003 25.8993Z" fill="#1D1D1B"/>
<path d="M37.4896 26.0393C37.317 25.9633 37.145 25.8847 36.9736 25.8033C37.4226 26.0423 37.5106 26.0683 37.4896 26.0393Z" fill="#1D1D1B"/>
<path d="M41.2082 27.3153C40.8422 27.2333 40.4792 27.1443 40.1172 27.0443L40.2892 27.1003C40.5952 27.1763 40.9012 27.2503 41.2082 27.3153Z" fill="#1D1D1B"/>
<path d="M35.4633 24.8363C35.2993 24.7413 35.1443 24.6363 34.9863 24.5303L35.1863 24.6723C35.2773 24.7313 35.3723 24.7823 35.4633 24.8363Z" fill="#1D1D1B"/>
<path d="M33.8782 23.6273C34.0592 23.7773 33.6942 23.3613 33.8782 23.5273C33.7452 23.3903 33.6282 23.2563 33.5122 23.1373C33.3962 23.0183 33.2952 22.8983 33.1992 22.7853C33.2992 22.9083 33.3992 23.0323 33.5082 23.1733C33.6172 23.3143 33.7332 23.4643 33.8782 23.6273Z" fill="#1D1D1B"/>
<path d="M32.7754 22.3593C32.8644 22.4893 32.9754 22.6113 33.0874 22.7493C32.9864 22.6153 32.8764 22.4913 32.7754 22.3593Z" fill="#1D1D1B"/>
<path d="M35.9015 25.2513C35.7962 25.1462 35.6825 25.0499 35.5615 24.9633C35.6125 25.0193 35.6615 25.0743 35.7175 25.1263L35.9015 25.2513Z" fill="#1D1D1B"/>
<path d="M35.6862 25.1254L35.6802 25.1194C35.5132 25.0034 35.3942 24.9114 35.3262 24.8604C35.3882 24.9064 35.4972 24.9924 35.6862 25.1254Z" fill="#1D1D1B"/>
<path d="M35.9297 25.2622C35.942 25.2764 35.9579 25.2871 35.9757 25.2932L35.9297 25.2622Z" fill="#1D1D1B"/>
<path d="M38.4597 26.5095L37.9317 26.3225C37.8077 26.2765 37.7927 26.2945 38.0967 26.4465C38.3297 26.5155 37.9817 26.3435 38.4597 26.5095Z" fill="#1D1D1B"/>
<path d="M36.8748 25.8083C36.6828 25.7083 36.4878 25.6163 36.3008 25.5083C36.4678 25.6193 36.6428 25.7193 36.8178 25.8213C36.8118 25.8053 36.7208 25.7373 36.8748 25.8083Z" fill="#1D1D1B"/>
<path d="M36.2072 25.4942L36.0192 25.3732L35.9512 25.3472C36.0332 25.4002 36.1222 25.4452 36.2072 25.4942Z" fill="#1D1D1B"/>
<path d="M33.4022 23.2283C33.3132 23.1343 33.2272 23.0283 33.1362 22.9193C33.0452 22.8103 32.9612 22.6833 32.8652 22.5543C33.0542 22.8431 33.2616 23.1193 33.4862 23.3813C33.5282 23.4093 33.6412 23.5053 33.4022 23.2283Z" fill="#1D1D1B"/>
<path d="M34.4541 24.2333C34.4401 24.2223 34.4231 24.2073 34.4111 24.1963C34.4321 24.2273 34.4591 24.2463 34.4541 24.2333Z" fill="#1D1D1B"/>
<path d="M31.0811 19.5352L31.0921 19.5852L31.1041 19.5942L31.0811 19.5352Z" fill="#1D1D1B"/>
<path d="M33.6088 23.4724C33.6744 23.557 33.7459 23.6369 33.8228 23.7114C33.8858 23.7744 33.9418 23.8254 33.9968 23.8744C33.8628 23.7364 33.7168 23.5924 33.5768 23.4234C33.5588 23.4104 33.5538 23.4104 33.6088 23.4724Z" fill="#1D1D1B"/>
<path d="M32.4012 21.9713C32.3452 21.8513 32.2262 21.6123 32.2012 21.5713C32.2502 21.6973 32.3262 21.8283 32.4012 21.9713Z" fill="#1D1D1B"/>
<path d="M34.3448 24.1255L34.3738 24.1505C34.3188 24.0855 34.3238 24.0965 34.3448 24.1255Z" fill="#1D1D1B"/>
<path d="M34.3284 24.1193C34.2284 24.0313 34.1464 23.9673 34.0674 23.8993C34.1804 24.0083 34.2894 24.1043 34.3824 24.1883C34.3624 24.1593 34.3424 24.1383 34.3284 24.1193Z" fill="#1D1D1B"/>
<path d="M31.59 20.6675C31.624 20.7415 31.662 20.8145 31.7 20.8865C31.638 20.7605 31.6 20.6475 31.55 20.5255C31.5 20.4035 31.455 20.2685 31.401 20.0915C31.3363 19.9291 31.2577 19.7725 31.166 19.6235C31.304 20.0035 31.466 20.3735 31.631 20.7405L31.59 20.6675Z" fill="#1D1D1B"/>
<path d="M32.0677 21.6311C32.2189 21.9063 32.3979 22.1653 32.6017 22.4041C32.4407 22.1621 32.3727 22.0571 32.3577 22.0241C32.3427 21.9911 32.3717 22.0341 32.4077 22.0851C32.4336 22.1238 32.4638 22.1593 32.4977 22.1911C32.463 22.1078 32.4208 22.0278 32.3717 21.9521C32.4317 22.0521 32.4927 22.1381 32.5507 22.2241C32.6087 22.3101 32.6627 22.3941 32.7187 22.4721C32.6607 22.3851 32.6107 22.2971 32.5577 22.2121C32.5047 22.1271 32.4577 22.0441 32.4117 21.9601C32.4161 21.9679 32.4201 21.9759 32.4237 21.9841C32.4447 22.0301 32.4497 22.0461 32.4237 21.9961L32.4107 21.9761C32.3955 21.9659 32.382 21.9535 32.3707 21.9391C32.2067 21.6461 32.3527 21.8881 32.4107 21.9761C32.4107 21.9761 32.4207 21.9841 32.4237 21.9841C32.3237 21.8201 32.2177 21.6581 32.1237 21.4851C32.0767 21.4011 32.0237 21.3181 31.9817 21.2321L31.8467 20.9741C32.0007 21.3069 32.1758 21.6285 32.3707 21.9391C32.2287 21.8021 31.9327 21.2901 32.0677 21.6311Z" fill="#1D1D1B"/>
<path d="M37.3273 26.2563C37.2973 26.2363 37.3003 26.2343 37.2983 26.2303C37.2283 26.1993 37.2013 26.1893 37.3273 26.2563Z" fill="#1D1D1B"/>
<path d="M36.3254 25.6223L36.3024 25.5963C36.2844 25.5883 36.2964 25.5993 36.3254 25.6223Z" fill="#1D1D1B"/>
<path d="M37.3656 26.1943C37.3396 26.1843 37.3136 26.1733 37.2886 26.1623C37.0053 26.0094 36.7336 25.8359 36.4756 25.6433C36.6046 25.7733 36.746 25.8905 36.8976 25.9933C37.0348 26.0454 37.1685 26.1065 37.2976 26.1763C37.5096 26.2933 37.2876 26.1953 37.2976 26.2123C37.4436 26.2763 37.8306 26.4363 37.3656 26.1943Z" fill="#1D1D1B"/>
<path d="M34.014 24.0912C34.0457 24.1215 34.0791 24.1499 34.114 24.1762C34.154 24.2042 34.153 24.1872 34.183 24.2052C34.065 24.0942 33.944 23.9862 33.832 23.8682L33.661 23.6942C33.605 23.6352 33.553 23.5732 33.498 23.5132C33.548 23.5792 33.598 23.6482 33.646 23.7132L33.803 23.9072V23.8732L33.924 24.0042L34.014 24.0912Z" fill="#1D1D1B"/>
<path d="M31.1396 19.5053C31.0526 19.3393 30.9716 19.1693 30.8896 18.9983C30.9446 19.1323 30.9896 19.2683 31.0516 19.3983L31.1396 19.5053Z" fill="#1D1D1B"/>
<path d="M30.6257 18.1622L30.5107 17.8472L30.5757 18.1282L30.6257 18.1622Z" fill="#1D1D1B"/>
<path d="M25.1187 16.3722C25.0677 16.5272 25.0397 16.6272 25.0677 16.6082L25.1387 16.4932C25.1987 16.2072 25.2497 15.9932 25.3007 15.8042L25.1187 16.3722Z" fill="#1D1D1B"/>
<path d="M28.195 3.26514C28.1834 3.56833 28.1998 3.87196 28.244 4.17214C28.231 3.80814 28.214 3.51514 28.195 3.26514Z" fill="#1D1D1B"/>
<path d="M16.3944 32.2483C16.5594 32.3053 16.6324 32.3243 16.6314 32.3133C16.4614 32.2553 16.3634 32.2213 16.3944 32.2483Z" fill="#1D1D1B"/>
<path d="M28.0986 2.21834V2.41134C28.1256 2.67634 28.1546 2.94234 28.1776 3.26634C28.1745 2.91564 28.1481 2.56554 28.0986 2.21834Z" fill="#1D1D1B"/>
<path d="M50.3555 30.1403C50.4445 30.1313 50.5925 30.1113 50.8465 30.0723C50.7315 30.0903 50.5365 30.1153 50.3555 30.1403Z" fill="#1D1D1B"/>
<path d="M29.333 12.8145C29.343 12.8565 29.377 13.0815 29.333 12.8145V12.8145Z" fill="#1D1D1B"/>
<path d="M29.3837 14.2191C29.378 14.1834 29.3647 14.1493 29.3447 14.1191C29.3627 14.1503 29.3759 14.184 29.3837 14.2191Z" fill="#1D1D1B"/>
<path d="M29.3809 13.2273C29.3699 13.1273 29.3559 13.0103 29.3389 12.8833C29.3439 12.9393 29.3569 13.0433 29.3809 13.2273Z" fill="#1D1D1B"/>
<path d="M29.4014 13.1863L29.4344 13.4203C29.4474 13.4523 29.4464 13.4223 29.4014 13.1863Z" fill="#1D1D1B"/>
<path d="M29.3265 12.7943C29.3145 12.7163 29.2975 12.6053 29.2695 12.4213C29.2925 12.5743 29.3115 12.7213 29.3295 12.8553C29.3235 12.8033 29.3225 12.7813 29.3265 12.7943Z" fill="#1D1D1B"/>
<path d="M30.6074 40.4643C30.6074 40.4543 30.6194 40.4403 30.6284 40.4213L30.6074 40.4643Z" fill="#1D1D1B"/>
<path d="M52.8864 29.7163C53.3014 29.6293 52.9274 29.6163 52.5264 29.6093C53.1091 29.548 53.7058 29.487 54.3164 29.4263C40.8554 28.0793 34.7294 26.8833 31.5374 21.0563C31.5694 21.1123 31.6004 21.1713 31.6374 21.2223L31.6484 21.1893C31.4674 20.8723 31.3344 20.6433 31.4484 20.8893C31.2984 20.608 31.1561 20.3163 31.0214 20.0143C31.1584 20.2653 31.2214 20.2943 31.2294 20.1953C31.22 19.9891 31.1865 19.7847 31.1294 19.5863C31.1164 19.5803 31.1044 19.5793 31.0634 19.5053C31.0424 19.4683 31.0124 19.4143 30.9704 19.3313C30.9284 19.2483 30.8844 19.1313 30.8164 18.9873C30.8594 19.2103 31.3164 20.3353 31.0604 19.8463C30.9694 19.6463 30.9084 19.5093 30.8604 19.4053C30.8295 19.3289 30.8028 19.2507 30.7804 19.1713C30.7454 19.0553 30.7364 18.9893 30.6744 18.7903C30.7074 18.9653 30.5934 18.7143 30.4744 18.4423C30.4107 18.275 30.332 18.1137 30.2394 17.9603C29.7261 16.2995 29.3301 14.6047 29.0544 12.8883C29.0664 12.9193 29.0734 12.9143 29.0694 12.8483L28.9824 12.3733C28.9604 11.9293 29.2004 13.2603 29.1244 12.6543C29.2674 13.2873 29.4484 13.9923 29.6114 14.8873L29.5754 15.0673C29.5475 14.7843 29.4963 14.504 29.4224 14.2293C29.4724 14.4133 29.5224 14.7583 29.5804 15.1083C29.6207 15.4143 29.6982 15.7142 29.8114 16.0013C29.7734 15.7913 29.7454 15.5803 29.7114 15.3703C29.8894 15.9983 30.1584 16.7603 30.3734 17.5363C30.3404 17.1683 30.3064 17.3613 30.2354 16.7913C30.2424 16.9163 30.2134 16.8543 30.1664 16.7043C30.1194 16.5543 30.0534 16.3143 29.9994 16.0823C29.8794 15.6193 29.7914 15.1893 29.8234 15.5873C29.8012 15.3134 29.7635 15.041 29.7104 14.7713C29.6495 14.4576 29.6051 14.1408 29.5774 13.8223C29.5604 13.8483 29.5774 14.0963 29.4704 13.4303C29.4584 13.4013 29.4374 13.3303 29.4234 13.2873C29.4234 13.2663 29.4234 13.2593 29.4174 13.2423V13.2793C29.4094 13.2513 29.4064 13.2483 29.4174 13.2933C29.4327 13.4074 29.4408 13.5223 29.4414 13.6373C29.3592 13.3555 29.2925 13.0694 29.2414 12.7803C29.1744 12.4303 29.1074 12.0803 29.0674 11.8973C29.0174 11.4973 29.1194 12.0603 29.1114 11.8403L28.9864 11.3083C29.0314 11.2483 28.9234 10.2423 29.0864 11.1743L28.9694 10.3323C28.9314 9.83234 28.8574 9.14834 28.7834 8.73234C28.7474 8.33234 28.6074 7.73234 28.6884 8.07434L28.5084 6.75134L28.5204 6.73834C28.3874 5.42834 28.1614 4.04734 28.1204 2.53834C28.0674 2.09734 28.0104 1.63834 27.9624 0.90134L27.9954 0.75434C27.9844 0.65434 27.9754 0.54734 27.9654 0.42334H27.3114C27.2564 1.01634 27.1504 1.83434 27.1714 2.04034C26.9974 2.64034 26.8974 4.79034 26.7714 5.78434L26.8274 5.82634C26.7544 6.51134 26.7024 7.17034 26.6274 8.02634L26.6874 7.97934C26.6464 8.71634 26.4264 9.85934 26.2664 11.0133C26.2757 10.8184 26.3021 10.6246 26.3454 10.4343C26.0374 11.7993 25.9954 13.3533 25.6504 14.5783C25.6153 14.8307 25.5611 15.0801 25.4884 15.3243C25.4954 15.2953 25.4994 15.2703 25.5034 15.2483C25.4964 15.2793 25.4844 15.3263 25.4724 15.3743L25.3474 15.7953C25.3904 15.6693 25.4274 15.5483 25.4574 15.4423C25.4044 15.6793 25.3264 16.0423 25.2494 16.3913L25.1544 16.5283C25.1464 16.5563 25.1404 16.5793 25.1334 16.6083C25.0204 16.9463 25.0844 16.8893 25.1754 16.7153C25.1354 16.8923 25.1064 17.0563 25.0814 17.1833C24.9134 17.4393 24.8384 18.1013 24.6074 18.4463C24.5826 18.5735 24.5492 18.6987 24.5074 18.8213C24.4464 18.9953 24.3744 19.2093 24.2954 19.4213C24.1634 19.7793 24.0204 20.1273 23.9834 20.2903C23.8934 20.4703 23.7934 20.6443 23.7044 20.8193C23.6154 20.9943 23.5184 21.1643 23.4414 21.3303L23.2864 21.4483C23.1634 21.7173 23.0244 21.9803 22.8814 22.2433C22.7716 22.3842 22.6502 22.5157 22.5184 22.6363C22.4644 22.6703 22.5054 22.6023 22.6404 22.3693C22.4314 22.6957 22.1998 23.0072 21.9474 23.3013C21.7814 23.4813 21.6474 23.6503 21.2474 24.0613L21.2564 23.9953C20.9464 24.3051 20.6079 24.585 20.2454 24.8313C20.0454 24.9513 19.6984 25.1643 19.2514 25.4203C18.7194 25.7142 18.1719 25.9793 17.6114 26.2143C16.9579 26.4874 16.2903 26.7254 15.6114 26.9273C14.9244 27.1323 14.2404 27.2963 13.6334 27.4213C13.8854 27.4263 13.6004 27.4783 13.2434 27.5413C12.9623 27.5684 12.6858 27.6309 12.4204 27.7273C12.2714 27.7273 11.9274 27.7773 12.3204 27.6753C11.0834 27.9473 10.4354 27.9753 9.58342 28.1903C9.43342 28.1843 9.84442 28.1063 9.71142 28.1093C9.53789 28.1522 9.3614 28.1819 9.18342 28.1983C9.05142 28.1983 9.36342 28.1483 9.55942 28.1033C8.27442 28.3033 8.15942 28.4033 8.07842 28.4983C7.58824 28.5232 7.10146 28.5939 6.62442 28.7093C6.39242 28.7093 6.00642 28.7293 6.81042 28.6203L5.24842 28.7953C4.82791 28.8258 4.41015 28.8866 3.99842 28.9773C3.85342 28.9773 3.36342 29.0403 3.24442 29.0613C2.22442 29.1613 2.13442 29.1683 1.13342 29.2753L1.41242 29.2583C1.34383 29.2797 1.27404 29.2971 1.20342 29.3103L0.995422 29.2793V29.3423H0.965422L0.107422 29.4423L0.965422 29.5183H0.995422V29.5823L1.37342 29.5623C1.59242 29.5893 1.84242 29.6223 2.14942 29.6503L2.12642 29.6563C3.96842 29.9083 2.92642 29.7093 4.74442 29.9773L4.65242 29.9163C4.83842 29.8263 6.25842 30.1633 7.31942 30.2603L6.94242 30.1823C7.52642 30.2193 8.52942 30.5393 9.10042 30.6413C9.22542 30.6693 8.90042 30.6273 8.72342 30.6083C9.47042 30.7493 9.52342 30.7433 9.52342 30.7173C9.52342 30.6913 9.48942 30.6483 10.0514 30.7283C10.2514 30.7973 9.76842 30.7713 10.5184 30.9043C10.7034 30.9493 11.2534 31.0133 11.8814 31.1043C12.4982 31.1898 13.1086 31.3164 13.7084 31.4833C13.4954 31.4063 13.2814 31.3293 13.7984 31.4263C13.9984 31.4733 14.2204 31.5343 14.4634 31.6033C14.7064 31.6723 14.9634 31.7533 15.2094 31.8373L15.9394 32.0733C16.1694 32.1433 16.3794 32.2073 16.5574 32.2463C16.6484 32.2873 16.6824 32.3063 16.6834 32.3143C16.8294 32.3583 17.0144 32.4283 17.2214 32.5003C17.4284 32.5723 17.6464 32.6643 17.8614 32.7473C18.0764 32.8303 18.2794 32.9193 18.4504 32.9973C18.6214 33.0753 18.7634 33.1323 18.8504 33.1643C19.0582 33.3353 19.2811 33.4869 19.5164 33.6173C19.8324 33.8083 20.2024 34.0473 20.5474 34.2903C21.2324 34.7803 21.7844 35.3133 21.7084 35.3633C22.1172 35.7787 22.4921 36.2261 22.8294 36.7013L22.7874 36.6733C23.0984 37.1303 23.2964 37.4463 23.4494 37.6873C23.5254 37.8083 23.5924 37.9093 23.6494 38.0003C23.7064 38.0913 23.7614 38.1743 23.8164 38.2573C23.9164 38.4893 23.8164 38.3293 23.8014 38.3143C23.8904 38.4943 23.9594 38.6573 24.0244 38.8043C24.0894 38.9513 24.1444 39.0813 24.1934 39.2043C24.2424 39.3273 24.2884 39.4333 24.3314 39.5363C24.3744 39.6393 24.4104 39.7363 24.4494 39.8303C24.6044 40.2063 24.7494 40.5523 24.9984 41.1793L24.9804 41.3263C25.0401 41.4953 25.0911 41.6672 25.1334 41.8413C25.1954 42.0913 25.2744 42.4063 25.3494 42.7603C25.5084 43.4673 25.6804 44.3233 25.8544 45.0843C25.827 45.0329 25.8074 44.9776 25.7964 44.9203C25.9915 45.8454 26.138 46.78 26.2354 47.7203C26.2783 48.3903 26.3943 49.0536 26.5814 49.6983L26.7694 50.8433C26.6134 49.3533 26.8874 51.0563 26.8514 50.4433C26.9344 51.0273 26.9574 51.9633 26.8684 51.2433V51.1293C26.7974 51.0023 26.8384 51.4653 26.8864 51.9563C26.9393 52.2845 26.9597 52.6171 26.9474 52.9493C27.1234 54.6493 27.2544 56.3333 27.3784 57.9803C27.3591 58.117 27.3408 58.2537 27.3234 58.3903H27.3344C27.3644 58.2453 27.3754 58.4453 27.4064 58.3633V58.4263H27.8644V58.3903C27.8814 58.2253 27.8954 58.0613 27.9124 57.8963C27.9354 58.1903 27.9414 58.3343 27.9384 58.3903H27.9494C27.9414 58.2143 27.9324 58.0383 27.9164 57.8623C27.9958 57.0163 28.0751 56.1813 28.1544 55.3573L28.0404 55.6673L28.1344 54.7093C28.1784 54.4593 28.2344 54.3763 28.1644 55.0603C28.2255 54.6732 28.2433 54.2804 28.2174 53.8893C28.3844 52.5533 28.2654 54.4203 28.3084 54.0093L28.3574 53.4513L28.3354 53.5763C28.3242 53.1357 28.346 52.6948 28.4004 52.2573C28.4724 51.7393 28.4824 51.9953 28.5064 51.7913C28.5064 51.7913 28.5134 51.7753 28.5204 51.7283C28.5274 51.6813 28.5334 51.6013 28.5444 51.4783L28.6894 50.2783L28.5654 50.7533C28.5934 50.2163 28.7054 49.6203 28.5594 50.1693C28.6704 49.7693 28.8154 48.6453 28.9764 47.5693C29.1374 46.4933 29.3134 45.4523 29.3764 45.2063C29.4812 44.4063 29.6369 43.6137 29.8424 42.8333C29.7734 43.0533 29.6644 43.1733 29.8664 42.4013C29.9074 42.5583 30.0174 42.2083 30.1574 41.7473C30.282 41.3124 30.4394 40.8875 30.6284 40.4763C30.5934 40.5343 30.6074 40.4663 30.6504 40.3293C30.6754 40.2473 30.7094 40.1423 30.7504 40.0293C30.7914 39.9163 30.8384 39.7883 30.8844 39.6653C31.0714 39.1743 31.2594 38.7253 31.0294 39.1243C31.3134 38.5163 31.0994 39.1053 31.3444 38.6573C31.69 37.8576 32.1366 37.1055 32.6734 36.4193C33.282 35.6441 33.9851 34.948 34.7664 34.3473C34.7804 34.3143 34.4854 34.5023 34.8164 34.2143C35.1314 34.0223 35.4534 33.8423 35.7854 33.6803C35.9058 33.599 36.022 33.5115 36.1334 33.4183C36.3241 33.2832 36.5328 33.1755 36.7534 33.0983C36.6534 33.1323 36.4924 33.1843 36.7384 33.0543C38.692 32.1861 40.7387 31.5449 42.8384 31.1433C44.9799 30.707 47.1459 30.4007 49.3244 30.2263C48.7354 30.2633 49.1244 30.2103 49.5704 30.1563C49.2784 30.1823 49.5704 30.1103 49.5094 30.0923C50.1154 30.0433 50.7204 29.9983 51.3274 29.9553C51.6945 29.8801 52.0658 29.828 52.4394 29.7993C52.7881 29.7758 53.1347 29.7274 53.4764 29.6543C53.3644 29.6713 53.2504 29.6833 53.1614 29.6953L52.8864 29.7163ZM30.9864 19.9453C30.8351 19.6033 30.6904 19.2473 30.5524 18.8773C30.6704 19.1283 30.8444 19.5503 30.9864 19.9453ZM30.4864 18.6853H30.4804C30.4654 18.6453 30.4514 18.6053 30.4374 18.5643L30.4864 18.6853ZM28.8514 9.68534L28.8454 9.66334C28.8104 9.19534 28.8214 9.36134 28.8524 9.68634L28.8514 9.68534ZM28.2734 5.72134C28.4054 6.76434 28.2554 6.17934 28.2894 6.36034C28.3373 6.95543 28.4261 7.5465 28.5554 8.12934C28.6659 8.62975 28.7378 9.13791 28.7704 9.64934C28.7934 10.3003 28.6494 9.69134 28.6224 9.83934C28.4894 8.99234 28.4994 8.53034 28.4314 7.95434L28.4834 8.66734C28.4124 8.28802 28.3619 7.90513 28.3324 7.52034C28.3324 7.58734 28.3384 7.68734 28.3484 7.81534C28.2071 6.54867 28.0701 5.20201 27.9374 3.77534C28.0354 4.15734 28.1574 4.86334 28.2744 5.72234L28.2734 5.72134ZM27.4924 1.58334C27.5074 1.61634 27.5364 1.52234 27.5554 1.44834C27.5308 1.73501 27.5064 2.01867 27.4824 2.29934C27.4794 2.07034 27.4824 1.80834 27.4934 1.58434L27.4924 1.58334ZM27.1674 5.36134C27.174 5.32366 27.1872 5.28743 27.2064 5.25434C27.1724 5.60334 27.1374 5.94634 27.1064 6.28434L27.0124 6.29734L27.0914 6.42834C27.0554 6.76967 27.0194 7.10534 26.9834 7.43534C26.9134 7.43534 26.8584 7.36634 26.8454 7.23534C26.8604 7.13434 27.0914 5.69534 27.1674 5.36134ZM26.2264 12.1553L26.3264 11.2253C26.3324 11.4753 26.3324 11.9183 26.3164 12.4123C26.2298 12.9457 26.1394 13.458 26.0454 13.9493C26.0574 13.4933 26.0854 12.9493 26.1514 12.3813L26.2264 12.1553ZM23.9804 20.2863C23.9753 20.308 23.9723 20.3301 23.9714 20.3523C23.9554 20.3593 23.9074 20.4493 23.9814 20.2873L23.9804 20.2863ZM22.8314 22.3203C22.8144 22.3853 22.8664 22.3773 22.9314 22.3633C22.7788 22.5747 22.6208 22.7793 22.4574 22.9773C22.5874 22.7613 22.7154 22.5423 22.8324 22.3213L22.8314 22.3203ZM7.80642 28.5683C7.96342 28.5573 7.83842 28.5993 7.63142 28.6543C7.71842 28.6373 7.80042 28.6203 7.86442 28.6063C8.05342 28.5903 8.12642 28.5933 8.12642 28.6063L7.48142 28.6933L7.63042 28.6543L7.30742 28.7163L7.04142 28.7503C6.82942 28.7583 6.64842 28.7623 6.51942 28.7693C6.95142 28.7073 7.38042 28.6373 7.80742 28.5703L7.80642 28.5683ZM28.4704 51.8683C28.5004 51.4393 28.5034 51.5603 28.5064 51.6803L28.4704 51.8683Z" fill="#1D1D1B"/>
<path d="M29.9307 15.6723L29.9447 15.7323C29.9387 15.7063 29.9337 15.6873 29.9307 15.6723Z" fill="#1D1D1B"/>
<path d="M29.8918 15.6572C29.8988 15.6442 29.8918 15.5572 29.9168 15.6472L29.8018 15.1372C29.8628 15.4142 29.8728 15.5162 29.8918 15.6572Z" fill="#1D1D1B"/>
<path d="M29.9189 16.3491C29.9436 16.6242 30.0031 16.895 30.0959 17.1551L30.0759 17.0851C30.1609 17.1881 30.0369 16.7721 29.9189 16.3491Z" fill="#1D1D1B"/>
<path d="M30.1533 17.2973C30.1873 17.4193 30.2213 17.5433 30.2533 17.6643C30.2853 17.7043 30.2163 17.5143 30.1533 17.2973Z" fill="#1D1D1B"/>
<path d="M29.2093 12.0893C29.2893 12.2983 28.9733 10.8103 29.1443 11.8633C29.1593 12.0593 29.2103 11.9783 29.2093 12.0893Z" fill="#1D1D1B"/>
<path d="M29.8339 16.6952L29.8469 16.5402C29.8149 16.4682 29.7859 16.3962 29.7559 16.3242C29.7799 16.4482 29.8069 16.5712 29.8339 16.6952Z" fill="#1D1D1B"/>
<path d="M29.1523 13.3173C29.1813 13.5353 29.2123 13.7523 29.2463 13.9693C29.2712 14.0233 29.2868 14.0812 29.2923 14.1403C29.2223 13.7413 29.1633 13.3003 29.1523 13.3173Z" fill="#1D1D1B"/>
<path d="M29.4193 14.7103C29.3973 14.5983 29.3493 14.3573 29.3193 14.1903C29.3503 14.3983 29.3893 14.5963 29.4193 14.7103Z" fill="#1D1D1B"/>
<path d="M28.0945 5.17434C28.1215 5.34434 28.1515 5.61034 28.1575 5.49834L28.0795 4.78334C28.0535 4.71234 28.0595 4.90834 28.0945 5.17434Z" fill="#1D1D1B"/>
<path d="M52.8447 29.8643L53.3907 29.8213L53.0357 29.8293L52.8447 29.8643Z" fill="#1D1D1B"/>
<path d="M53.9824 29.5983C54.0528 29.5974 54.1229 29.5914 54.1924 29.5803C54.2883 29.5231 54.3886 29.4736 54.4924 29.4323C54.4324 29.4513 54.3434 29.4833 54.2474 29.5183C54.1613 29.5517 54.0727 29.5785 53.9824 29.5983Z" fill="#1D1D1B"/>
</svg>
