<svg width="154" height="141" viewBox="0 0 154 141" fill="none" xmlns="http://www.w3.org/2000/svg">
<g clip-path="url(#clip0_5_1176)">
<path d="M105.694 132.737C105.694 132.572 105.86 132.324 106.108 132.241C106.108 132.158 106.025 131.993 105.943 131.828C105.116 131.993 105.943 132.489 105.529 132.737C105.529 132.737 105.612 132.737 105.694 132.737ZM101.807 133.73C101.973 133.647 102.138 133.647 102.221 133.647L102.056 133.316C101.807 133.399 101.725 133.482 101.807 133.73ZM12.8197 109.25C12.737 109.994 13.564 109.333 12.8197 109.25V109.25ZM6.03807 95.4385C6.36888 95.3558 6.28618 95.6039 6.45159 95.6866C6.53429 95.6039 6.53429 95.5212 6.53429 95.4385C6.36888 95.3558 6.20348 95.1904 6.03807 95.025C6.03807 95.1904 6.03807 95.2731 6.03807 95.4385ZM0.331612 79.8905C0.248909 79.8905 0.166207 79.9732 0.166207 80.0559C0.248909 79.9732 0.331612 79.9732 0.331612 79.8905ZM10.2559 33.6599C10.1732 33.7426 10.0905 33.8253 10.0078 33.9907C10.0905 33.908 10.1732 33.8253 10.3386 33.8253C10.3386 33.7426 10.2559 33.7426 10.2559 33.6599ZM108.589 8.35294C108.589 8.35294 108.506 8.27024 108.424 8.18753C108.424 8.18753 108.424 8.27024 108.424 8.35294H108.589ZM118.265 12.4881C118.182 12.5708 118.1 12.6535 118.017 12.7362C118.1 12.7362 118.1 12.8189 118.1 12.8189C118.265 12.9843 118.431 12.9843 118.596 12.9016C118.513 12.8189 118.513 12.6535 118.431 12.5708L118.265 12.4881ZM151.181 90.2283C151.76 90.0629 151.925 89.5666 152.339 89.3185C152.256 88.2434 151.925 87.3337 152.917 86.7548C152.587 86.5067 152.587 85.6796 153.166 85.5969C152.835 85.5142 152.504 85.5142 152.09 85.5969C151.925 86.0931 151.677 86.5894 151.346 87.0029C151.594 87.9126 151.346 89.5666 150.684 90.1456C150.933 90.5591 150.767 90.9726 150.933 91.3034C151.346 91.0553 151.346 90.7245 151.181 90.2283ZM144.895 101.641C144.647 101.228 144.73 101.393 144.565 101.062C145.226 100.731 145.722 100.07 145.722 99.3255C145.143 99.9871 144.151 100.318 143.82 101.31H143.407C143.407 101.807 143.159 102.22 142.828 102.551C142.91 102.551 143.076 102.551 143.159 102.551C143.738 102.303 144.316 101.972 144.647 101.476C144.647 101.641 144.647 101.724 144.895 101.641ZM122.566 124.55C122.4 124.219 122.979 124.136 122.897 123.805C122.648 123.971 122.483 124.054 122.318 124.219C122.4 124.467 122.483 124.632 122.566 124.55ZM118.761 125.956C119.34 125.708 119.919 125.377 120.333 125.046C120.167 125.046 120.002 124.963 119.919 124.881C119.837 125.294 119.258 125.377 118.761 125.542C118.761 125.708 118.761 125.79 118.761 125.956ZM114.957 128.519C115.04 128.768 114.874 128.85 115.04 129.016C115.371 128.933 115.371 128.437 114.957 128.519ZM113.303 129.181C113.22 129.512 114.047 129.346 113.717 129.098L113.303 129.181ZM94.695 134.888C94.8604 134.805 95.0258 134.805 94.8604 134.557C94.695 134.639 94.5296 134.639 94.5296 134.805C94.6123 134.805 94.695 134.805 94.695 134.888ZM70.2978 136.376C70.2151 136.79 70.9594 136.542 70.7113 136.293L70.2978 136.376ZM69.8843 136.211C69.6362 136.128 69.3054 136.045 69.0573 135.797C67.8994 135.797 66.907 135.466 65.9146 134.888C66.08 135.715 65.3357 135.88 64.8394 136.542C65.9146 136.707 66.8243 136.211 67.6513 137.038C67.8994 136.79 67.4032 136.459 67.8994 136.376C68.3956 136.293 68.9746 136.376 69.3054 136.79C69.3881 136.79 69.5535 136.707 69.6362 136.707C69.8016 136.707 69.967 136.624 70.0497 136.542C69.967 136.459 69.967 136.293 69.8843 136.211ZM23.6537 111.483C23.6537 111.317 23.571 111.235 23.6537 111.152C23.3229 111.235 22.9094 111.235 22.4131 111.152C22.165 110.573 21.6688 110.16 21.0072 109.911C21.1726 109.333 20.2629 109.002 19.8494 108.588C19.7667 108.423 19.9321 108.34 19.7667 108.092C19.1877 108.257 19.3532 107.761 19.105 107.513C18.8569 107.265 18.4434 107.182 18.278 106.934C18.1126 106.769 18.1126 106.521 18.0299 106.355C17.7818 106.024 17.3683 105.859 17.2856 105.611C17.2029 105.528 17.6991 105.611 17.2029 105.528C17.0375 105.445 16.7067 105.032 16.4586 104.536C16.4586 104.701 16.4586 104.867 16.5413 104.949C16.1278 104.949 16.1278 105.363 15.4661 105.197C15.4661 105.28 15.4661 105.445 15.3834 105.528C15.9624 106.603 16.8721 107.43 17.7818 108.175L18.1953 109.167C18.8569 109.581 19.1877 110.49 19.7667 111.317C19.9321 111.483 20.3456 111.069 20.511 111.317C20.5937 111.648 20.6764 112.062 20.5937 112.392C20.8418 112.392 20.9245 112.558 21.0072 112.806C21.8342 112.641 22.165 113.468 22.5785 114.129C23.0748 113.302 23.4056 112.392 23.6537 111.483ZM13.564 101.393C13.8121 101.724 13.9775 102.137 14.0602 102.634C14.5564 102.386 14.1429 101.889 14.1429 101.393C13.6467 100.897 13.3159 100.235 13.1505 99.4909C12.6543 99.739 12.737 98.9947 12.4062 98.9947C12.8197 100.07 12.4889 101.476 13.2332 102.055C13.564 101.724 12.737 101.476 13.564 101.393ZM10.5867 97.0926L11.0829 97.0099C11.0002 96.9272 11.0002 96.8445 10.9175 96.7617L10.504 96.8445L10.5867 97.0926ZM4.05322 48.2982H3.97052V48.0501H3.72241V48.2982H4.05322ZM4.79754 69.3873L4.30132 69.5527L4.38403 69.8008L4.88024 69.6354L4.79754 69.3873ZM3.557 73.9359C3.557 74.0186 3.4743 74.1013 3.557 74.184C3.63971 74.5975 3.4743 75.011 3.88781 75.1764C3.80511 75.2591 3.63971 75.3418 3.557 75.4245C3.72241 76.1689 4.21862 76.8305 4.88024 77.244C5.04565 77.0786 5.21105 76.9959 5.54186 77.244C5.54186 77.1613 5.54186 76.9959 5.54186 76.9132C5.29375 76.2516 4.88024 75.3418 5.45916 74.7629C4.79754 74.7629 5.04565 74.0186 5.04565 73.6878C4.71484 73.6051 3.97052 73.9359 3.557 73.9359ZM6.78239 84.3564C7.0305 84.2737 7.19591 84.2737 7.0305 84.0256L6.78239 84.1083C6.78239 84.191 6.78239 84.2737 6.78239 84.3564ZM19.3532 29.9383C19.5186 31.0134 18.1126 30.848 17.9472 31.7577C20.1802 31.5096 20.4283 29.442 21.9169 28.3669C22.0823 28.3669 22.165 28.3669 22.3304 28.3669C22.0823 28.2842 21.9996 28.1188 21.9996 27.8707C21.6688 28.0361 21.5034 27.9534 21.4207 27.8707C21.2553 28.1188 21.0072 28.2842 20.6764 28.3669C20.5937 28.8631 20.4283 28.9458 20.4283 29.3593C19.8494 29.3593 19.684 29.6901 19.3532 29.9383ZM60.5389 9.51077C58.9676 9.59347 60.6216 8.18753 60.5389 9.51077V9.51077ZM77.1621 6.20268C77.1621 6.28538 77.1621 6.36808 77.2448 6.45078C77.4102 6.45078 77.4929 6.28538 77.4929 6.11997C77.4102 6.11997 77.2448 6.20268 77.1621 6.20268ZM80.4702 5.37565C80.1394 5.45835 79.8913 5.62376 80.0567 5.87187C80.3048 5.78916 80.3048 5.62376 80.4702 5.37565ZM82.1242 5.87187C82.2069 5.95457 82.2896 6.11997 82.6204 6.11997C83.1994 6.11997 83.861 6.03727 84.5226 6.03727C84.1091 5.54106 84.4399 5.12755 84.5226 4.63133C84.2745 4.87944 83.9437 5.04484 83.5302 5.04484C83.2821 4.71403 84.1918 4.96214 83.9437 4.63133L82.9513 4.96214C83.6129 5.62376 82.455 5.45835 82.1242 5.87187ZM96.7626 12.1572C96.7626 12.2399 96.7626 12.3226 96.8453 12.4054L97.0934 12.3226L97.0107 12.0745L96.7626 12.1572ZM111.07 10.4205C110.987 10.3378 110.822 10.2551 110.739 10.1724C110.739 10.2551 110.657 10.4205 110.657 10.5032C110.822 10.5032 110.987 10.5032 111.07 10.4205ZM150.271 50.6965C149.857 50.7792 150.023 50.2003 149.527 50.2003C149.444 50.3657 149.361 50.5311 149.279 50.6965C149.527 50.8619 150.436 50.8619 150.271 50.6965ZM149.857 53.0122C149.279 53.4257 149.857 54.4181 150.519 54.4181C150.354 53.5084 150.106 52.6814 149.692 51.8544C149.527 52.1025 149.444 52.3506 149.279 52.5987C149.361 52.8468 149.692 52.8468 149.857 53.0122ZM149.692 51.1101C149.692 51.1928 149.361 51.6063 149.692 51.6063C149.692 51.6063 150.023 51.1101 149.692 51.1101ZM147.211 49.456H147.459V49.2079H147.211V49.456ZM86.4248 132.076C86.0939 132.324 85.6804 132.489 85.1842 132.572C85.4323 132.655 85.1015 132.82 85.0188 133.068C85.2669 132.985 85.5977 132.985 85.8458 132.985C86.0112 132.737 86.2593 132.489 86.5075 132.406L86.4248 132.076ZM74.0194 133.068C75.6734 132.985 77.4102 132.572 79.1469 132.737C79.3123 132.655 79.1469 132.241 79.3951 132.241C80.7183 132.406 81.2145 131.828 82.3723 131.745C82.3723 131.662 82.3723 131.662 82.2896 131.579C80.7183 131.828 79.2297 131.993 77.6583 132.324C77.4929 132.406 77.6583 132.572 77.4929 132.655C76.3351 131.993 75.508 133.068 74.2675 132.737C74.2675 132.903 74.1848 132.985 74.0194 133.068ZM28.5331 110.077C28.6985 110.077 28.6985 109.994 28.6985 109.911C28.7812 109.829 28.6985 109.829 28.6985 109.746H28.6158C28.5331 109.911 28.4504 109.994 28.3677 110.077C28.4504 110.077 28.4504 110.077 28.5331 110.077ZM10.1732 94.8596C10.1732 94.6942 10.1732 94.6115 10.1732 94.4461C10.0905 94.4461 10.0078 94.4461 9.92508 94.6115C9.92508 94.7769 10.0905 94.8596 10.1732 94.8596ZM35.232 18.3599C35.1493 18.2772 34.9012 18.1945 34.9012 18.4426C34.9839 18.5253 35.1493 18.608 35.3147 18.608C35.3147 18.5253 35.232 18.4426 35.232 18.3599ZM35.3147 17.4502V17.2848H34.9012C34.7358 17.6156 34.6531 17.9464 35.1493 17.9464C35.1493 17.781 35.232 17.6156 35.3147 17.4502ZM35.9763 19.2696C34.9839 19.3524 34.0742 19.2696 33.3298 19.1042C33.2471 19.6832 33.4126 20.2621 33.578 20.7583C33.1644 21.0891 32.8336 21.5026 32.5028 21.9161C32.5028 21.9988 32.5028 21.9988 32.5028 21.9988C32.5855 22.0815 32.5855 22.0815 32.6682 22.0815C33.4126 21.9988 34.405 21.7507 35.4801 21.668C35.8109 21.2545 36.2244 20.7583 36.6379 20.2621C36.8861 19.9313 37.6304 19.6005 37.7958 19.1869C37.3823 19.1869 36.8033 19.2696 36.3898 19.2696C36.3071 19.2696 36.3071 19.3524 36.3071 19.3524C36.1417 19.3524 36.059 19.2696 35.9763 19.2696ZM45.1563 19.1869C45.239 19.1869 45.239 19.1042 45.3217 19.1042C45.239 19.1042 45.1563 19.1042 45.1563 19.1869ZM147.955 78.8153C148.203 78.7326 148.286 78.4845 148.203 78.2364C148.038 78.3191 147.955 78.5672 147.955 78.8153ZM118.017 110.325C118.017 110.242 117.934 110.242 117.934 110.16C117.852 110.242 117.686 110.325 117.604 110.408C117.769 110.49 117.852 110.408 118.017 110.325ZM114.461 117.107C114.213 116.693 115.04 116.776 114.792 116.528C114.213 116.61 114.378 116.776 113.799 116.776C113.965 117.107 114.13 117.272 114.461 117.107ZM113.634 116.445C113.882 116.28 114.213 116.197 114.047 115.949C113.799 115.949 113.468 116.031 113.634 116.445ZM102.386 124.136C101.725 124.302 100.98 124.55 100.484 124.798C100.898 124.881 100.98 125.129 101.063 125.542C101.228 125.377 101.477 125.211 101.311 124.881C101.89 124.881 101.973 124.384 102.386 124.136ZM29.1947 107.265C29.3601 107.1 29.6082 107.1 29.8563 107.182C29.6909 106.851 29.5255 106.603 29.3601 106.273C28.8639 106.355 28.6985 106.686 28.5331 107.1C28.7812 107.1 29.0293 107.182 29.1947 107.265ZM25.8039 101.724L25.7212 101.476L25.225 101.641V101.724L25.3077 101.889L25.8039 101.724ZM7.60942 61.117C7.60942 61.2824 7.69212 61.3651 7.85753 61.5306C8.10563 60.9516 8.43644 60.5381 8.84995 60.0419C8.76725 59.7111 8.76725 59.3803 8.60185 59.0495C7.69212 59.5457 8.35374 60.8689 7.60942 61.117ZM23.8191 28.4496C23.7364 28.4496 23.6537 28.4496 23.571 28.4496V28.7804H23.8191V28.4496ZM48.7952 24.1491C48.8779 24.3145 49.126 24.4799 49.4568 24.5626C49.7049 24.3972 49.953 24.2318 50.2011 24.0664C49.7876 24.0664 49.2914 24.1491 48.7952 24.1491ZM86.6729 17.2021C86.6729 17.0367 86.8383 17.0367 86.8383 16.7886H86.5902C86.5902 16.954 86.4248 16.954 86.4248 17.1194L86.5075 17.2021H86.6729ZM106.604 16.3751C106.439 16.4578 106.191 16.4578 105.943 16.4578C106.108 16.5405 106.273 16.6232 106.521 16.7059C106.604 16.7059 106.687 16.7059 106.77 16.7059L106.604 16.3751ZM108.175 21.0891C108.01 21.4199 108.258 21.2545 108.175 21.5853C108.754 21.668 108.754 21.0064 108.175 21.0891ZM113.799 24.3972C113.634 24.6453 113.634 24.728 113.882 24.8107C113.882 24.6453 113.965 24.4799 114.047 24.3972H113.799ZM131.58 52.0198C131.663 52.1025 131.663 52.1025 131.58 52.0198C131.911 51.7717 132.325 51.5236 132.655 51.1928C132.407 50.8619 132.573 50.6965 132.738 50.4484C132.49 50.6138 132.159 50.6138 131.911 50.6965C132.159 51.2755 131.746 51.6063 131.58 52.0198ZM140.843 79.7251C140.512 79.5597 140.678 79.7251 140.347 79.8905C140.347 80.3867 141.091 80.1386 140.843 79.7251ZM139.189 85.6796L139.106 85.5969C139.023 85.5142 138.941 85.5142 138.775 85.5142C138.775 85.5142 138.775 85.5969 138.775 85.6796C138.858 85.5969 139.023 85.5969 139.189 85.6796ZM115.453 109.415C115.95 108.919 116.446 108.34 116.942 107.927C116.777 107.927 116.777 107.844 116.777 107.678C117.19 107.513 117.604 107.265 118.017 106.934C117.769 106.934 117.604 106.934 117.355 106.934C116.942 107.348 116.363 107.596 115.867 107.596C115.867 107.596 115.95 107.596 115.95 107.678C115.288 108.092 115.205 108.754 114.874 109.25C115.122 109.25 115.288 109.333 115.453 109.415ZM89.2366 123.888C88.9885 124.136 89.7328 124.219 89.6501 124.054C89.5674 123.971 89.5674 123.888 89.2366 123.888ZM85.0188 124.219C84.9361 123.805 85.3496 123.888 85.5977 123.723C85.1015 123.64 84.4399 123.805 84.0264 124.054C84.1091 124.136 84.1918 124.219 84.1918 124.302C84.5226 124.136 84.7707 124.136 85.0188 124.219ZM81.0491 125.542C81.2145 125.459 81.4626 125.377 81.5453 125.294C81.2972 125.046 81.0491 124.798 80.8837 124.467C80.5529 124.632 80.3875 125.129 79.8086 124.881C79.8086 125.294 80.0567 125.542 80.3875 125.708C80.6356 125.625 80.801 125.625 81.0491 125.542ZM79.2297 128.768L79.5605 128.602V128.519C79.3123 128.271 79.0642 128.602 79.2297 128.768ZM61.9449 129.098C61.1178 129.264 62.0276 129.677 61.9449 129.098V129.098ZM54.5016 122.317C54.6671 122.151 54.2535 121.572 54.2535 121.903L54.5016 122.317ZM10.0905 75.1764C10.0905 75.2591 10.0905 75.3418 10.0905 75.4245C10.1732 75.6726 10.3386 75.7554 10.6694 75.6727C10.7521 75.2591 10.504 75.0937 10.0905 75.1764ZM11.5791 52.6814L11.6618 52.9295L11.9099 52.8468L11.8272 52.5987L11.5791 52.6814ZM12.158 69.3873C12.158 69.8008 12.158 70.1316 12.0753 70.4624C12.737 70.4624 12.4889 69.7181 12.158 69.3873ZM10.9175 84.4391C10.9175 84.5218 10.9175 84.5218 10.9175 84.6045C10.9175 84.6872 10.9175 84.7699 11.0002 84.8526C11.0002 84.6872 10.9175 84.6045 10.9175 84.4391ZM25.5558 31.0961C25.8039 31.0961 25.6385 31.1788 25.5558 31.4269C25.6385 31.5096 25.8039 31.5096 25.8866 31.5096C25.8866 31.1788 25.6385 30.7653 25.5558 31.0961ZM59.2984 25.0588C59.2157 24.728 58.9676 24.2318 59.0503 24.0664C58.6368 24.0664 58.7195 24.3972 58.306 24.3972C57.8924 24.0664 57.727 24.2318 57.0654 24.4799C57.0654 24.2318 56.9 24.3145 56.7346 24.2318C56.8173 24.5626 56.8173 24.9761 56.7346 25.3069L56.8173 25.3896C57.727 24.728 58.1405 25.4723 59.2984 25.0588ZM121.242 42.1782C121.739 42.2609 121.987 41.8474 121.491 41.7647C121.491 42.0128 121.325 42.0128 121.242 42.1782ZM135.881 60.7862C135.55 60.7035 135.302 60.5381 135.136 60.5381C135.302 60.2073 135.715 60.0419 135.715 59.7111C135.136 59.7938 135.054 60.3727 134.475 60.5381C134.64 60.7862 134.64 61.117 134.475 61.4478C134.723 61.8614 135.054 62.2749 135.467 62.6057C135.633 62.4403 135.633 62.1922 135.963 62.1922C135.715 61.7787 135.715 61.2824 135.881 60.7862ZM94.695 124.136C94.6123 123.971 94.5296 123.723 94.2815 123.888C94.3642 124.054 94.5296 124.136 94.695 124.136ZM70.6286 127.692C70.4632 127.362 70.2151 127.114 69.967 126.948C69.7189 127.031 69.3881 127.031 69.14 127.031C68.9746 127.527 69.5535 127.858 69.8016 128.189C69.6362 127.444 70.0497 127.61 70.6286 127.692ZM63.6816 124.219C63.5989 124.963 64.4259 124.302 63.6816 124.219V124.219ZM16.7067 77.3267C17.0375 77.3267 17.1202 77.1613 16.9548 76.8305C16.7067 76.9132 16.624 77.0786 16.7067 77.3267ZM17.6991 67.1543C17.8645 67.6505 17.7818 67.8986 17.2856 68.064C17.0375 68.4775 17.0375 69.0565 17.1202 69.5527C17.5337 69.3873 18.1126 69.1392 18.3607 68.7257C18.3607 68.643 18.278 68.5602 18.1953 68.4775C18.6088 68.1467 18.278 68.064 18.1953 67.5678C18.278 67.4851 18.278 67.4024 18.3607 67.3197C18.278 67.237 18.1126 67.1543 18.0299 67.0716C17.8645 67.1543 17.7818 67.1543 17.6991 67.1543ZM19.0223 76.3343C19.105 76.2516 19.105 76.1689 19.0223 76.0862H18.9396L19.0223 76.3343ZM24.7288 45.4863C24.8115 45.9825 24.8115 46.4787 24.7288 46.9749C25.1423 46.7268 25.4731 46.396 25.8039 46.0652C25.3077 45.569 26.052 45.1555 25.8866 44.6593C25.7212 44.6593 25.5558 44.742 25.3904 44.742C25.225 45.1555 24.8942 45.2382 24.7288 45.4863ZM30.4353 30.9307C30.7661 30.9307 31.0142 30.9307 31.4277 30.848C31.5104 30.848 31.5104 30.7653 31.5931 30.7653C31.5931 30.7653 31.5931 30.6826 31.5931 30.5999C31.2623 30.5999 31.2623 30.3518 30.9315 30.1037C30.8488 30.4345 30.518 30.4345 30.3526 30.5172C30.1872 30.7653 30.1045 31.0134 30.1045 31.2615H30.1872C30.1872 31.1788 30.3526 31.0134 30.4353 30.9307ZM39.2844 36.3063C39.2844 36.2236 39.3671 36.1409 39.2844 35.8928C39.2017 36.0582 39.2017 36.2236 39.119 36.3063H39.2844ZM41.1039 36.0582C41.0212 36.1409 41.1039 36.2236 41.1866 36.2236C41.2693 36.1409 41.2693 36.1409 41.352 36.0582C41.2693 36.0582 41.1866 36.0582 41.1039 36.0582ZM108.175 27.6226C108.258 27.8707 108.093 28.2842 108.424 28.1188C108.506 27.9534 108.341 27.7053 108.175 27.6226ZM115.619 34.5696C115.288 34.1561 114.792 33.9907 114.213 33.9907C114.047 34.4869 113.882 34.9004 113.717 35.3966C114.13 35.562 114.213 35.3966 114.874 35.3139C114.957 35.3966 114.957 35.4793 115.04 35.4793C115.205 35.2312 115.371 34.8177 115.619 34.5696ZM118.927 41.1031C119.34 41.0204 119.258 41.2685 119.671 41.2685C119.671 40.9377 119.671 40.5242 119.506 40.3587C118.927 40.1106 119.175 40.9377 118.927 41.1031ZM130.505 90.5591C130.588 90.4764 130.671 90.3937 130.671 90.311C130.422 90.2283 130.092 90.2283 129.926 90.4764C130.092 90.4764 130.34 90.4764 130.505 90.5591C130.505 90.4764 130.505 90.4764 130.505 90.5591ZM125.378 103.791C125.378 103.543 125.874 103.543 125.626 103.213C125.129 103.13 124.964 103.709 125.378 103.791ZM116.28 105.197C116.446 105.197 116.611 105.197 116.694 105.28C116.694 105.115 116.694 105.032 116.611 104.949C116.528 104.949 116.363 104.949 116.28 104.949C116.28 105.032 116.28 105.115 116.28 105.197ZM114.626 105.611C114.709 105.611 114.792 105.611 114.792 105.611C114.957 105.363 115.122 105.032 115.288 104.784C114.957 104.867 114.461 105.032 114.626 105.611ZM94.695 92.792C94.7777 93.1228 94.9431 93.2883 95.2739 93.1228C95.3566 92.7093 95.0258 92.8747 94.695 92.792ZM94.2815 94.1153C94.5296 94.2807 95.0258 94.1153 94.8604 93.7845H94.7777C94.6123 93.7018 94.3642 93.8672 94.2815 94.1153ZM58.6368 100.649C59.0503 100.814 59.0503 100.07 58.6368 100.235V100.649ZM52.8476 98.4985C52.9303 98.7466 52.6822 99.4082 53.0957 99.2428C53.2611 98.9947 53.5092 98.6639 53.5919 98.3331C53.2611 98.1677 52.9303 98.085 52.4341 98.1677C52.5995 98.2504 52.7649 98.4158 52.8476 98.4985ZM49.0433 97.0099C48.9606 96.9272 48.9606 96.8445 48.9606 96.7617L48.7125 96.8445L48.7952 97.0926L49.0433 97.0099ZM37.3823 103.709H37.1342V103.957H37.3823V103.709ZM30.7661 97.258C30.7661 97.5061 30.518 97.5061 30.4353 97.6715C30.6007 97.9196 31.0142 97.8369 31.5104 97.8369V97.4234C30.9315 97.5888 31.2623 97.3407 30.7661 97.258ZM30.0218 95.7693C29.8563 95.6039 29.5255 95.6039 29.4428 95.9347C29.5255 96.1001 30.0218 96.1001 30.0218 95.7693ZM23.1575 80.8829C22.8267 80.4694 23.8191 80.304 23.1575 80.8829V80.8829ZM36.9688 29.2766L37.0515 29.5247L37.2996 29.442L37.2169 29.1939L36.9688 29.2766ZM47.1411 37.2988C47.0584 37.2988 46.9757 37.2988 46.893 37.3815C46.7276 37.4642 46.6449 37.6296 46.7276 37.795C46.8103 37.795 46.893 37.7123 46.9757 37.7123C47.0584 37.5469 47.1411 37.5469 47.1411 37.2988ZM61.0351 34.9831C60.9524 34.8177 61.1178 34.4042 60.7043 34.5696C60.7043 34.735 60.5389 34.8177 60.4562 34.9831C60.6216 34.9831 60.787 34.9831 61.0351 34.9831ZM77.2448 32.502C77.1621 32.5847 77.0794 32.6674 76.914 32.7501C77.3275 32.9155 77.6583 32.9982 78.1545 33.0809C77.741 32.9155 77.4929 32.7501 77.2448 32.502ZM116.363 40.276C116.28 39.2836 117.19 38.4566 116.363 37.9604C116.28 37.9604 116.28 37.8777 116.198 37.8777C116.777 38.622 115.205 39.7798 116.363 40.276ZM120.581 58.9668C120.746 59.6284 120.167 59.8765 120.167 60.3727C120.498 60.3727 120.829 60.2073 121.16 60.1246C121.242 59.7111 121.325 59.2976 121.573 58.9668C121.16 58.8841 120.829 58.8841 120.581 58.9668ZM119.423 90.7245C119.423 90.7245 119.423 90.7245 119.34 90.8072C119.34 91.0553 119.258 91.2207 119.175 91.4688C119.423 91.2207 119.34 90.9726 119.423 90.7245ZM112.062 78.898C112.062 79.0634 112.228 79.2289 112.311 79.477C112.559 79.1461 113.055 78.898 112.476 78.6499C112.311 78.6499 112.145 78.8153 112.062 78.898ZM76.8313 115.039C76.6659 114.874 76.5005 114.625 76.3351 114.377C75.9216 114.377 75.508 114.377 75.0118 114.377C75.2599 114.874 75.6734 115.452 75.7561 115.783C76.087 115.618 76.4178 115.37 76.8313 115.039ZM61.5313 110.573C61.6141 110.49 61.5313 110.242 61.3659 110.242C61.0351 110.242 61.2832 110.738 61.5313 110.573ZM22.165 67.8159C22.2477 67.9813 21.7515 68.3121 22.165 68.2294C22.165 68.1467 22.165 68.064 22.2477 68.064C22.4131 68.1467 22.4958 68.3121 22.7439 68.2294C22.7439 68.1467 22.7439 68.064 22.7439 67.9813C22.8267 67.9813 22.8267 67.8986 22.8267 67.8986C22.7439 67.8159 22.4958 67.7332 22.165 67.8159ZM23.9845 64.5905C23.9845 64.5905 23.9018 64.6732 23.9018 64.7559C23.9845 64.7559 23.9845 64.7559 24.0672 64.7559C24.0672 64.6732 23.9845 64.6732 23.9845 64.5905ZM33.0817 30.4345C33.0817 30.5172 33.0817 30.6826 33.0817 30.848C33.1644 30.7653 33.2471 30.7653 33.3298 30.6826C33.4126 30.5172 33.3298 30.4345 33.0817 30.4345ZM34.6531 31.7577L34.7358 32.0058L35.232 31.8404L35.1493 31.5923L34.6531 31.7577ZM58.0578 37.0507C58.2233 36.8025 57.9751 36.8025 57.8097 36.4717C57.2308 36.4717 57.5616 37.2988 58.0578 37.0507ZM56.9 38.2085C56.9827 38.2085 56.9827 38.2085 56.9827 38.0431C56.9 38.0431 56.9 38.0431 56.8173 38.0431C56.7346 38.1258 56.9 38.1258 56.9 38.2085ZM64.1778 37.795C64.0124 37.795 63.847 37.8777 63.6816 37.9604C63.6816 38.0431 63.5989 38.1258 63.5162 38.1258C63.7643 38.2085 64.0951 38.3739 64.3432 38.5393C64.5086 38.2912 64.7567 38.2085 65.0048 38.2912C65.0875 38.1258 65.3357 38.0431 65.3357 37.8777C65.1702 37.795 65.0048 37.7123 64.8394 37.7123C64.674 37.8777 64.5086 38.0431 64.1778 38.0431C64.1778 37.9604 64.1778 37.8777 64.1778 37.795ZM75.3426 34.8177C75.1772 34.8177 75.0118 34.9004 74.8464 34.9004C75.1772 35.3139 75.3426 35.8101 75.3426 36.3063C75.8389 36.1409 75.8389 36.3063 76.4178 36.3063C76.4178 35.562 77.5756 35.8101 78.0718 35.562L78.1545 35.3966C77.0794 35.3966 76.0043 35.4793 75.3426 34.8177ZM97.5896 36.968V36.8025H97.3415V36.968C97.4242 36.968 97.5069 36.968 97.5896 36.968ZM101.477 31.8404C101.477 31.7577 101.311 31.7577 101.146 31.675C101.063 31.7577 100.98 31.9231 100.98 32.0058C100.98 32.0885 101.063 32.0885 101.063 32.1712C101.063 31.8404 101.228 31.8404 101.477 31.8404ZM110.574 34.8177C110.822 34.5696 110.987 34.2388 110.987 33.908C109.912 33.7426 109.747 34.2388 109.085 34.4042C109.581 34.6523 110.078 34.8177 110.574 34.8177ZM115.95 40.3587C115.95 40.276 115.867 40.276 115.784 40.1933C115.867 40.276 115.867 40.276 115.95 40.3587ZM126.287 85.7623C126.866 85.845 127.362 86.3413 128.107 86.0931C127.941 85.1007 127.28 85.1834 126.866 84.5218C126.453 84.8526 126.453 85.3488 126.287 85.7623ZM128.52 83.8602C128.438 83.9429 128.438 84.0256 128.438 84.191C128.438 84.191 128.52 84.191 128.603 84.191C128.52 84.1083 128.52 84.1083 128.52 84.1083C128.52 84.0256 128.52 83.9429 128.52 83.8602ZM125.295 88.2434L125.212 87.9953L124.964 88.078L125.047 88.3261L125.295 88.2434ZM125.956 98.085L125.708 98.1677L125.791 98.4158L126.039 98.3331L125.956 98.085ZM108.01 95.2731C108.175 95.1904 108.341 95.1077 108.506 95.025C108.424 95.025 108.424 94.9423 108.424 94.8596C108.341 94.9423 108.341 95.1077 108.01 95.1077C108.01 95.1904 108.01 95.1904 108.01 95.2731ZM106.852 95.1077C106.852 95.1077 106.852 95.025 106.77 94.9423C106.687 94.9423 106.604 95.025 106.521 95.025L106.604 95.1904L106.852 95.1077ZM75.8389 113.385C75.0118 113.468 76.0043 113.964 75.8389 113.385V113.385ZM41.4347 74.6802C41.352 74.7629 41.1866 74.9283 41.1039 75.011C41.2693 75.011 41.5174 74.8456 41.4347 74.6802ZM35.5628 92.9574C35.8109 93.1228 36.059 93.2883 36.3898 93.4537C36.8033 92.9574 36.6379 92.2131 37.2169 91.6342C36.8861 91.6342 36.6379 91.6342 36.3898 91.7169C36.1417 92.1304 35.8936 92.5439 35.5628 92.9574ZM26.9618 52.8468C26.7964 53.2603 27.2099 53.0949 27.5407 53.0949V52.6814C27.2926 52.6814 27.2099 52.8468 26.9618 52.8468ZM31.2623 47.9674C31.345 47.8847 31.4277 47.9674 31.6758 47.9674C31.5931 47.9674 31.4277 47.8847 31.2623 47.9674ZM32.9163 34.2388C32.9163 34.1561 32.9163 34.1561 32.9163 34.2388V34.2388ZM31.6758 82.4542L31.7585 82.7023L32.0066 82.6197L31.9239 82.3715L31.6758 82.4542ZM38.8709 48.7944C38.9536 48.7944 39.0363 48.7944 39.0363 48.7944C39.119 48.629 39.2017 48.5463 39.2017 48.3809C39.0363 48.4636 38.9536 48.629 38.8709 48.7944ZM34.0742 54.2527L34.1569 54.5009L34.405 54.4181L34.3223 54.17L34.0742 54.2527ZM35.7282 64.8386H35.9763V64.5905H35.7282V64.8386ZM34.405 83.1159C34.6531 83.2813 34.9839 83.1986 35.232 83.1986C35.3147 83.0332 35.3974 82.7851 35.3974 82.6197C35.0666 82.5369 34.405 82.5369 34.405 83.1159ZM38.8709 54.749L38.5401 54.8317V54.9144H38.8709V54.749ZM33.7434 64.3424C33.6607 64.4251 33.578 64.5078 33.6607 64.5905C33.7434 64.5905 33.9088 64.6732 33.9915 64.7559C34.0742 64.5905 33.9915 64.3424 33.7434 64.3424ZM38.2093 66.2446C38.6228 65.9965 39.2017 65.8311 39.7806 65.583C39.6979 65.4176 39.6979 65.3349 39.7806 65.1695L38.9536 65.4176C38.8709 65.7484 38.5401 66.0792 38.2093 66.2446ZM40.3596 63.0192C40.3596 63.4327 41.1039 63.1846 40.7731 62.9365L40.3596 63.0192ZM39.8633 48.1328C39.8633 48.0501 39.8633 48.0501 39.8633 47.9674C39.6979 48.0501 39.5325 48.2155 39.3671 48.2982C39.5325 48.2982 39.6979 48.2155 39.8633 48.1328ZM38.1266 74.7629C38.2093 74.8456 38.2093 74.9283 38.2093 75.011H38.292L38.1266 74.7629ZM48.5471 78.3191C48.6298 78.4018 48.6298 78.4845 48.7952 78.5672C48.7952 78.5672 48.7125 78.3191 48.5471 78.3191ZM46.6449 54.5009C46.893 54.3354 47.0584 54.0873 47.1411 53.7565C46.9757 53.6738 46.893 53.5084 46.7276 53.4257C46.2314 53.5911 45.7352 53.8392 45.3217 54.17C45.1563 54.5009 44.8255 54.8317 44.8255 55.4106C44.4947 55.576 44.412 55.8241 43.9985 55.9068C43.9985 56.403 43.6676 56.8992 43.1714 57.0646C43.1714 57.3954 43.0887 57.7262 42.8406 57.9743C43.4195 57.9743 43.9985 57.9743 44.5774 57.9743C44.7428 57.8089 44.8255 57.6435 44.9909 57.4781C45.4044 56.5684 46.3968 55.7414 46.6449 54.5009ZM33.4953 45.1555C33.7434 45.1555 33.9088 45.1555 34.0742 45.0728C34.3223 44.742 34.6531 44.4939 35.1493 44.3285C35.1493 44.2458 35.1493 44.2458 35.1493 44.1631C34.3223 44.1631 33.4126 44.4112 33.4953 45.1555ZM33.9915 36.5544C34.2396 36.968 33.4953 36.8852 33.7434 37.2988C33.9915 37.2161 34.2396 37.2161 34.405 37.2988C34.4877 36.9679 34.6531 36.5544 34.9012 36.3063C34.6531 36.4717 34.3223 36.5544 33.9915 36.5544ZM30.7661 81.2137C30.4353 81.6272 30.1872 82.0407 29.9391 82.5369C30.1872 82.6197 30.4353 82.7023 30.6834 82.8678C30.9315 82.6196 31.0969 82.3715 31.2623 82.0407C31.7585 81.958 32.2547 81.7099 32.5855 81.2964C32.6682 81.131 32.6682 80.9656 32.7509 80.8002C32.7509 80.6348 32.5028 80.5521 32.0893 80.5521C31.5931 80.6348 31.0969 80.8829 30.7661 81.2137ZM32.0893 87.1683C32.0066 87.4164 31.8412 87.6645 31.7585 87.9953C31.9239 87.9953 32.0066 87.9953 32.172 87.9953C32.5028 88.078 32.6682 88.5742 33.2471 88.3261C33.4953 87.5818 32.5855 87.4164 32.0893 87.1683ZM37.3823 85.7623C37.2996 85.6796 37.2996 85.6796 37.2996 85.6796C37.1342 85.5969 36.8861 85.5969 36.6379 85.5969C36.5552 85.6796 36.5552 85.845 36.5552 86.0104C36.9688 86.0931 36.8861 85.5969 37.3823 85.7623ZM90.6426 38.4566C90.6426 38.5393 90.5599 38.7047 90.4772 38.8701C90.8907 38.7874 91.5523 38.7047 91.3042 38.3739L90.8907 38.5393C90.808 38.5393 90.7253 38.5393 90.6426 38.4566ZM109.499 44.4939C108.589 44.6593 109.581 45.0728 109.499 44.4939V44.4939ZM99.4917 60.4554C99.0782 59.3803 100.071 58.8841 100.98 59.2149C101.063 59.1322 101.063 59.1322 101.063 59.1322C100.65 58.8841 100.236 58.636 99.6571 58.5533C98.9955 58.9668 98.2512 59.3803 98.2512 60.1246C98.7474 60.2073 98.9128 60.6208 99.4917 60.4554ZM64.5086 71.3721C64.5913 71.2894 64.5913 71.124 64.5913 71.0413C64.5086 70.8759 64.3432 70.7105 64.2605 70.5451C64.0951 70.5451 63.9297 70.5451 63.7643 70.6278C64.0951 70.8759 64.2605 71.124 64.5086 71.3721ZM55.4114 68.7257C55.7422 67.9813 56.7346 67.8159 57.0654 67.3197C56.9827 67.0716 56.9 66.8235 56.8173 66.6581C56.5692 66.7408 56.4038 66.9889 56.4038 67.237C55.5768 67.5678 54.8325 67.8986 54.7498 68.5602C54.9152 68.4775 55.1633 68.8084 55.4114 68.7257ZM93.4545 46.7268C93.5372 46.8922 93.0409 47.1403 93.4545 47.0576C93.4545 46.9749 93.4545 46.8922 93.5372 46.8922C93.7026 47.0576 93.868 47.223 94.2815 46.9749C94.1988 46.6441 93.7853 46.7268 93.4545 46.7268ZM98.582 52.1852C98.4993 52.3506 98.4993 52.4333 98.582 52.516C98.7474 52.5987 98.9955 52.5987 99.1609 52.6814C99.1609 52.3506 98.9128 52.2679 98.582 52.1852ZM101.559 85.5142C101.559 85.5969 101.477 85.6796 101.394 85.7623C101.642 85.7623 101.89 85.7623 101.807 85.5142H101.559ZM103.213 61.1997L102.965 61.2824L103.048 61.5306L103.296 61.4478L103.213 61.1997ZM102.883 55.9895C102.883 55.9068 102.883 55.8241 102.883 55.7414C102.8 55.8241 102.8 55.9068 102.8 55.9895H102.883ZM102.634 50.3657C102.469 50.5311 102.469 50.8619 102.552 51.1101C102.634 51.0274 102.717 50.9446 102.8 50.7792C102.8 50.6138 102.8 50.4484 102.634 50.3657ZM100.98 49.456C101.228 49.3733 101.559 49.456 101.477 49.3733C101.311 49.2079 100.898 48.7117 100.815 48.9598C101.063 48.9598 100.98 49.2906 100.98 49.456ZM99.5744 45.2382C99.5744 45.2382 99.6571 45.2382 99.6571 45.3209C99.6571 45.2382 99.6571 45.2382 99.5744 45.1555V45.2382ZM94.695 54.5009C94.8604 54.6663 95.1912 54.6663 95.4393 54.6663L95.522 54.5835C95.3566 54.3354 95.1912 54.17 95.1912 54.0046C95.1085 54.0046 95.0258 54.0046 94.9431 54.0046C95.0258 54.2527 94.6123 54.17 94.695 54.5009ZM81.4626 71.7029C81.4626 71.6202 81.4626 71.4548 81.2972 71.2067C81.1318 71.124 81.0491 70.7932 80.8837 70.7932C80.4702 70.7105 79.8913 70.7932 79.4778 70.9586V71.0413C79.1469 71.6202 78.9815 72.2819 79.1469 72.8608C79.5605 72.7781 79.974 72.8608 80.4702 73.0262C80.7183 72.7781 80.801 72.4473 80.6356 72.1992C81.2145 72.2819 80.8837 71.6202 81.4626 71.7029ZM66.6589 39.6144C66.7416 39.8625 66.907 39.9452 67.1551 39.8625C67.1551 39.6971 67.0724 39.5317 66.9897 39.449C66.8243 39.449 66.8243 39.3663 66.6589 39.6144ZM74.5983 49.9522C74.1021 50.0349 73.6059 49.7868 73.4405 49.3733C73.1924 49.3733 72.9443 49.3733 72.6962 49.3733C72.9443 50.0349 73.1924 50.6138 73.9367 50.8619C74.1021 50.5311 74.5983 50.4484 74.5983 49.9522ZM76.9967 47.1403H76.7486C76.7486 47.3884 76.8313 47.3884 76.9967 47.3884V47.1403ZM75.8389 53.1776C76.0043 53.0949 76.1697 53.0122 76.0043 52.8468C75.8389 52.9295 75.6734 52.9295 75.6734 53.0949C75.7561 53.0949 75.8389 53.0949 75.8389 53.1776ZM73.027 56.2376C72.8616 56.3203 72.7789 56.403 72.6962 56.3203C72.3654 56.9819 71.9518 57.6435 71.3729 58.2225C71.7037 58.3052 72.0345 58.3879 72.4481 58.4706C72.4481 58.3879 72.5308 58.2225 72.5308 58.057C73.6059 57.8089 73.6059 56.7338 74.2675 56.1549C74.3502 56.0722 74.3502 55.9895 74.3502 55.9068C74.4329 55.576 74.1021 55.2452 73.7713 55.2452H73.5232L73.4405 55.4106C73.5232 55.7414 73.2751 55.9895 73.027 56.2376ZM74.2675 61.2824C74.3502 61.2824 74.4329 61.2824 74.5983 61.117C74.4329 61.1997 74.3502 61.117 74.2675 61.117C74.2675 61.1997 74.2675 61.1997 74.2675 61.2824ZM70.5459 69.0565C70.6286 69.0565 70.6286 69.0565 70.6286 69.1392C70.6286 69.0565 70.6286 69.0565 70.6286 69.0565H70.5459ZM66.5762 61.7787C66.4108 61.8614 66.3281 61.9441 66.1627 62.1095C66.2454 62.1095 66.3281 62.1922 66.4108 62.1922C66.4935 62.0268 66.4935 61.9441 66.5762 61.7787ZM68.4783 62.523C68.3129 62.6884 68.3129 62.8538 68.3129 63.0192C68.4783 63.0192 68.561 62.9365 68.7264 62.9365C68.7264 62.7711 68.8092 62.6884 68.8919 62.523C68.8092 62.4403 68.6438 62.4403 68.4783 62.523ZM76.1697 53.5911C76.1697 53.5911 76.2524 53.5084 76.2524 53.343L76.087 53.5084C76.087 53.5911 76.1697 53.5911 76.1697 53.5911ZM72.3654 49.3733C72.2827 49.3733 72.2 49.3733 72.1172 49.3733V49.456L72.3654 49.3733ZM66.4935 48.3809C66.4108 48.2982 66.1627 48.2982 66.08 48.3809C66.2454 48.4636 66.3281 48.4636 66.4935 48.5463C66.4935 48.5463 66.4935 48.4636 66.4935 48.3809ZM66.8243 51.689C66.6589 51.8544 66.4935 52.0198 66.2454 52.1025C66.4935 52.516 66.8243 52.7641 67.3205 52.8468C67.2378 53.4257 67.5686 53.7565 68.1475 53.7565C68.4783 53.5911 68.3956 53.0949 69.2227 53.2603C69.3054 52.1025 67.5686 52.2679 67.1551 51.4409C66.9897 51.5236 66.907 51.6063 66.8243 51.689ZM63.4335 53.9219C63.2681 54.0873 63.1854 54.17 63.02 54.2527C63.02 54.0873 62.8546 53.9219 62.8546 54.17C62.7719 54.17 62.6892 54.2527 62.7719 54.3354C63.1027 54.4181 63.2681 54.9144 63.7643 55.2452C63.847 55.2452 63.847 55.3279 63.9297 55.4106C64.0951 55.4933 64.1778 55.576 64.3432 55.576C64.3432 55.1625 64.5086 54.6663 64.0951 54.6663C64.0951 54.9144 63.9297 54.9971 63.6816 54.9144C63.4335 54.5836 63.4335 54.2527 63.4335 53.9219ZM73.4405 99.4909C73.6886 99.6563 73.9367 99.739 74.0194 99.8217C74.2675 99.4909 75.1772 99.6563 75.0945 99.0774C74.9291 98.9947 74.7637 98.8293 74.681 98.6639C74.1848 98.7466 73.6059 98.6639 73.2751 98.3331C73.1924 98.4985 73.1097 98.6639 73.027 98.912C73.1097 98.9947 73.1924 99.0774 73.2751 99.1601C73.3578 99.2428 73.3578 99.4082 73.4405 99.4909ZM91.0561 50.6138C91.5523 50.6138 91.8831 50.283 92.0485 49.7868C91.8004 50.1176 91.4696 50.3657 91.0561 50.6138ZM85.8458 48.7117C85.9285 48.7117 86.0112 48.7117 86.1766 48.7117C86.2593 48.629 86.3421 48.5463 86.4248 48.4636C86.1767 48.5463 86.0112 48.629 85.8458 48.7117ZM88.6577 81.6272L88.4096 81.7099V81.7926L88.6577 81.6272ZM88.4096 44.9901C88.3269 45.4036 89.2366 45.4863 89.2366 45.1555C88.8231 45.2382 88.8231 44.9074 88.4096 44.9901ZM82.8686 54.9144L82.7859 54.9971C82.7859 55.0798 82.7859 55.1625 82.7859 55.2452C82.7859 55.0798 82.8686 54.9971 82.8686 54.9144ZM69.0573 42.3436C69.14 42.2609 69.2227 42.2609 69.3054 42.0955C68.9746 41.8474 68.4783 41.8474 68.0648 42.0955C68.3956 42.1782 68.7265 42.2609 69.0573 42.3436ZM66.9897 40.276L66.6589 40.3587C66.8243 40.3587 66.907 40.3587 66.9897 40.276ZM54.2535 65.9138V65.9965C54.3362 65.9965 54.3362 65.9138 54.4189 65.9138H54.2535ZM55.1633 66.5754C55.1633 66.6581 55.1633 66.7408 55.1633 66.9062L55.4114 66.8235L55.3287 66.5754H55.1633ZM58.8849 80.8829C58.4714 80.8829 58.4714 81.131 58.1406 81.2137C58.2233 81.5445 58.4714 81.7926 58.8022 81.8753C58.9676 81.6272 59.133 81.4618 59.2157 81.2137C59.0503 81.2137 58.8849 81.0483 58.8849 80.8829ZM60.787 66.8235C61.4486 67.0716 61.5313 67.7332 61.9449 68.2294C62.4411 68.2294 62.2757 67.8159 62.4411 67.6505C62.193 67.237 61.614 67.237 61.3659 66.4927C61.2005 66.6581 60.7043 66.5754 60.787 66.8235ZM94.1988 56.4857C94.1988 56.5684 94.2815 56.7338 94.2815 56.8165C94.6123 56.8165 94.5296 56.403 94.2815 56.3203C94.2815 56.403 94.1988 56.403 94.1988 56.4857ZM101.146 90.2283C101.146 90.3937 101.311 90.4764 101.394 90.5591C101.807 90.4764 101.725 89.4012 102.469 89.1531C102.469 89.1531 102.469 89.0704 102.469 88.9877C102.469 89.0704 102.386 89.0704 102.386 89.0704C101.477 88.9877 101.394 89.8148 101.146 90.2283ZM105.364 71.7029C105.446 71.7029 105.446 71.7029 105.446 71.6202C105.364 71.6202 105.364 71.7029 105.364 71.7029ZM106.77 84.6045C106.852 84.6045 106.935 84.6045 107.018 84.6045C107.183 84.5218 107.431 84.4391 107.597 84.3564C107.679 84.3564 107.762 84.3564 107.845 84.3564V84.2737C107.762 84.191 106.77 84.3564 106.77 84.6045ZM108.424 82.5369C108.506 82.7024 108.506 83.0332 108.754 83.0332C108.754 82.8678 109.251 82.2888 108.92 82.2888C108.92 82.4542 108.589 82.4542 108.424 82.5369ZM97.755 44.6593C97.5896 44.8247 97.4242 44.9074 97.2588 44.9901C97.5896 45.1555 98.0031 45.2382 98.4166 45.1555C98.2512 44.8247 97.8377 44.9901 97.755 44.6593ZM95.1912 47.3884C95.1085 47.3057 95.0258 47.223 94.9431 47.223C94.7777 47.3057 94.6123 47.4711 94.5296 47.6366C94.695 47.7193 95.0258 47.802 95.1912 47.3884ZM85.3496 45.4863C85.3496 45.4036 85.3496 45.4036 85.2669 45.4036L85.3496 45.4863ZM61.4486 51.4409C61.2832 51.5236 61.1178 51.6063 60.9524 51.7717C60.8697 52.1025 60.787 52.3506 60.7043 52.6814C60.8697 52.8468 61.0351 53.0122 61.2005 53.2603C61.5313 53.0122 61.7795 52.6814 61.9449 52.3506C62.0276 52.2679 62.0276 52.2679 62.1103 52.2679C61.9449 51.9371 61.6968 51.689 61.4486 51.4409ZM54.2535 57.3127C54.2535 57.3127 54.2535 57.23 54.2535 57.0646C54.1708 56.9819 53.84 57.1473 53.84 57.23C53.84 57.3127 53.84 57.3127 53.84 57.3127C53.9227 57.3127 54.0881 57.3127 54.2535 57.3127ZM55.9076 77.3267C55.9903 77.6575 56.1557 77.9056 56.2384 78.071C56.6519 78.071 57.2308 78.071 57.6443 78.2364C57.727 77.9883 58.1406 77.9056 58.306 77.6575C57.6443 76.6651 56.9 76.9959 55.9076 77.3267ZM56.9 85.845C56.6519 85.9277 55.7422 85.7623 56.1557 86.3413C56.4865 86.0104 56.9827 86.3413 56.9 85.845ZM59.0503 89.5667C58.8849 89.9802 58.6368 90.311 58.5541 90.8072C59.2157 90.8899 59.0503 90.1456 59.6292 90.0629C59.5465 89.9802 59.4638 89.8975 59.4638 89.8148C59.2984 89.732 59.133 89.6494 59.0503 89.5667ZM71.0421 112.227C70.9594 112.144 70.8767 112.144 70.794 112.144L70.7113 112.227C70.794 112.227 70.9594 112.227 71.0421 112.227ZM76.914 107.927C77.2448 107.927 77.5756 107.927 78.0718 107.844C78.0718 107.596 78.0718 107.348 77.9891 107.1C77.9064 107.1 77.8237 107.017 77.741 107.017C77.3275 107.348 77.0794 107.596 76.914 107.927ZM102.469 101.807C102.552 101.889 102.552 101.972 102.634 102.137C102.552 102.055 102.552 101.889 102.469 101.807ZM114.213 53.7565C114.295 53.7565 114.378 53.7565 114.378 53.8392C114.378 53.6738 114.378 53.5911 114.378 53.4257C114.295 53.4257 114.213 53.4257 114.13 53.4257C114.213 53.5084 114.295 53.6738 114.213 53.7565ZM117.604 70.6278H117.19C117.19 70.9586 116.942 70.8759 117.19 71.124C117.521 71.124 117.604 70.9586 117.604 70.6278ZM115.288 83.9429C115.701 84.1083 115.701 83.364 115.288 83.5294V83.9429ZM117.769 85.1834C117.769 85.018 117.852 84.8526 117.934 84.5218C117.934 84.3564 117.852 84.191 117.769 84.1083C117.604 83.8602 117.438 83.6121 117.19 83.2813C116.777 84.0256 116.611 85.018 115.784 85.4315C115.867 85.5142 115.95 85.5969 116.032 85.6796C116.528 85.1834 116.777 85.3488 117.521 85.4315C117.604 85.3488 117.686 85.2661 117.769 85.1834ZM111.566 53.0122C111.484 52.6814 111.649 52.516 111.732 52.4333C111.401 52.3506 111.153 52.2679 110.905 52.1025C110.905 52.3506 110.822 52.5987 110.739 52.8468C110.905 52.9295 111.153 53.0122 111.566 53.0122ZM94.5296 36.5544V36.3063C94.2815 35.9755 93.7026 36.0582 93.2063 35.8928C93.4545 36.389 94.0334 36.6371 94.5296 36.5544ZM72.9443 35.6447C72.6135 35.3966 72.2 35.2312 71.7864 35.1485C71.7864 35.3966 71.621 35.562 71.4556 35.7274C71.7864 36.2236 72.2827 36.6371 72.8616 36.968C72.9443 36.968 73.027 36.8853 73.1097 36.8025C73.027 36.389 72.7789 36.1409 72.9443 35.6447ZM61.2005 39.8625C61.1178 39.9452 60.9524 40.0279 60.787 40.1106C60.6216 40.3587 60.4562 40.6896 60.2908 41.0204C60.9524 41.2685 61.6968 41.4339 62.4411 41.4339C62.2757 40.9377 62.1103 40.4414 61.9449 39.9452C61.6141 40.1106 61.3659 40.3587 61.2005 39.8625ZM55.9903 54.2527C55.4114 54.5008 54.8325 54.8317 54.0881 55.1625C54.1708 55.2452 54.1708 55.4106 54.0881 55.4933C54.0881 55.8241 54.0881 56.1549 54.2535 56.3203C55.4114 55.8241 55.4114 55.1625 55.9903 54.2527ZM32.7509 34.3215C32.5855 34.2388 32.4201 34.3215 32.2547 34.4042C32.2547 34.5696 32.4201 34.5696 32.5855 34.5696C32.5855 34.4869 32.5028 34.4869 32.5028 34.4042C32.5855 34.4042 32.6682 34.3215 32.7509 34.3215ZM27.1272 53.5084C26.9618 53.5084 26.7964 53.5084 26.7964 53.7565C26.9618 53.6738 27.0445 53.5911 27.1272 53.5084ZM30.7661 90.0629C31.0969 90.4764 31.5931 90.4764 32.0066 90.7245C32.0893 90.5591 32.0893 90.4764 32.172 90.311H32.0893C32.0066 90.311 31.9239 89.9802 31.9239 89.9802C31.6758 89.8975 31.6758 90.2283 31.4277 90.2283C31.1796 90.2283 30.9315 89.732 30.8488 89.8975C30.7661 89.9802 30.7661 89.9802 30.7661 90.0629ZM32.6682 90.0629C32.5028 90.1456 32.4201 90.2283 32.2547 90.311C32.3374 90.311 32.5028 90.311 32.5028 90.311C32.5855 90.2283 32.5855 90.1456 32.6682 90.0629ZM36.8861 99.4082C36.9688 99.3255 36.9688 99.1601 36.9688 99.0774C36.9688 99.2428 36.8861 99.3255 36.8861 99.4082ZM45.7352 99.9871C46.066 100.235 46.3968 100.483 46.3141 100.814C46.5622 100.98 46.893 100.98 47.3065 101.145C47.0584 100.401 46.5622 99.9044 45.7352 99.9871ZM51.8552 95.6039C51.8552 95.6866 51.8552 95.7693 51.9379 95.852H52.0206C52.0206 95.7693 51.9379 95.6866 51.8552 95.6039ZM64.0951 95.5212V96.0174H64.3432V95.5212H64.0951ZM70.4632 117.52C70.3805 117.603 70.2978 117.768 70.2151 117.851L70.7113 117.685L70.6286 117.437L70.4632 117.52ZM72.6962 119.753C72.4481 119.836 72.2 119.918 72.0345 120.001C72.7789 120.167 73.5232 120.332 74.2675 120.58C74.2675 120.497 74.1848 120.332 74.1848 120.249C74.0194 119.918 73.4405 119.67 73.1097 120.084C72.9443 120.001 72.8616 119.836 72.6962 119.753ZM105.364 101.558C105.943 101.145 106.439 100.649 106.604 100.153C106.108 99.9871 105.612 99.8217 105.115 99.5736C104.785 98.2504 104.288 97.9196 104.04 97.1753C103.544 97.1753 104.04 97.6715 103.544 97.7542C103.958 98.3331 103.461 98.5812 103.461 98.9947C103.544 99.0774 103.627 99.1601 103.71 99.2428C104.454 100.318 104.371 101.558 105.364 101.558ZM108.175 97.258C108.258 97.4234 108.093 97.8369 108.424 97.7542C108.506 97.5061 108.424 97.258 108.175 97.258ZM108.175 88.4088C108.258 88.4088 108.341 88.4915 108.341 88.4088C108.424 88.4088 108.506 88.4088 108.506 88.3261C108.424 88.078 108.258 87.9953 108.093 87.9953C108.01 88.1607 108.175 88.1607 108.175 88.4088ZM125.378 89.732C125.708 89.4012 126.122 89.0704 126.618 88.905C125.874 88.9877 125.047 89.0704 124.302 89.1531C124.551 89.5667 124.964 89.732 125.378 89.732ZM127.611 56.0722L127.445 56.1549V56.2376C127.445 56.1549 127.611 56.1549 127.611 56.0722ZM120.002 57.5608C119.919 57.0646 119.175 57.23 119.506 57.7262L120.002 57.5608ZM117.273 58.7187C117.438 58.9668 117.604 59.1322 117.852 59.2976C118.596 58.7187 118.431 57.8089 119.009 57.1473C118.844 57.1473 118.679 57.0646 118.596 56.9819C118.431 57.0646 118.265 57.23 118.1 57.3954C116.528 57.3127 116.032 57.6435 115.122 57.5608C115.122 57.6435 115.122 57.6435 115.122 57.7262C115.205 57.8089 115.205 57.8089 115.288 57.8916C115.453 57.9743 115.619 57.9743 115.536 58.2225C116.446 58.0571 116.363 58.8014 117.273 58.7187ZM113.386 38.0431C113.551 37.8777 113.717 37.795 113.882 37.6296C113.634 37.6296 113.468 37.7123 113.303 37.7123C113.303 37.795 113.303 37.9604 113.386 38.0431ZM108.92 32.9982C109.003 32.9155 109.002 32.8328 109.085 32.6674C108.92 32.6674 108.837 32.5847 108.672 32.5847C108.672 32.7501 108.754 32.9155 108.92 32.9982ZM107.845 32.3366C107.679 32.3366 107.514 32.3366 107.348 32.2539V32.3366C107.431 32.3366 107.679 32.3366 107.845 32.3366ZM107.018 42.6744C106.852 42.3436 106.521 42.0955 106.191 42.0128C105.943 42.2609 105.777 42.5917 105.777 42.9225C106.108 43.0879 106.439 43.336 106.77 43.5014C106.687 43.2533 106.852 43.0052 107.018 42.6744ZM103.875 40.1106C103.627 39.7798 103.544 39.449 103.213 39.2836C103.131 39.7798 102.883 40.276 102.552 40.6896C102.965 40.4414 103.379 40.276 103.875 40.1106ZM100.484 30.4345C100.401 30.4345 100.319 30.4345 100.236 30.4345C100.236 30.5999 100.153 30.7653 100.071 30.9307C100.815 30.848 100.65 31.5096 101.146 31.675C101.146 31.2615 101.228 30.9307 101.228 30.6826C101.063 30.7653 100.898 30.848 100.815 30.6826C100.65 30.2691 101.146 30.2691 100.815 29.8555C99.9879 29.6901 100.815 30.3518 100.484 30.4345ZM98.9955 28.615L98.7474 28.6977V28.7804H98.9955V28.615ZM86.921 37.2988C86.8383 37.2161 86.7556 37.1334 86.5902 37.1334V37.2161C86.6729 37.2161 86.8383 37.2988 86.921 37.2988ZM81.1318 37.795C81.2972 37.795 81.4626 37.7123 81.628 37.7123C81.8761 37.4642 82.1242 37.3815 82.455 37.3815C82.3723 36.8025 82.0415 36.3063 81.3799 36.1409C81.3799 36.1409 81.2972 36.1409 81.2145 36.1409C80.801 36.6371 80.3875 37.1334 79.8086 37.5469C80.1394 37.6296 80.3875 37.8777 80.801 37.4642C80.8837 37.6296 81.0491 37.7123 81.1318 37.795ZM61.2005 35.0658C61.2005 35.0658 61.2005 35.0658 61.2832 35.1485V35.0658H61.2005ZM54.9152 30.5999L54.7498 30.6826C54.7498 30.7653 54.7498 30.848 54.7498 30.9307L54.9979 30.848L54.9152 30.5999ZM32.0066 34.735C31.9239 34.9004 31.8412 34.9831 31.7585 35.1485V35.2312C31.9239 35.1485 32.0066 35.1485 32.172 35.1485C32.172 35.0658 32.2547 35.0658 32.3374 34.9831C32.3374 34.9004 32.3374 34.8177 32.3374 34.735C32.2547 34.735 32.0893 34.735 32.0066 34.735ZM25.4731 62.6884C25.0596 62.9365 24.8115 63.2673 24.6461 63.8462C24.8942 63.5981 25.225 63.4327 25.4731 63.1846C25.4731 63.1019 25.4731 63.1019 25.4731 63.0192C25.9693 62.523 26.4656 61.8614 26.7137 61.1997L26.4656 60.9516C26.4656 61.0343 26.3829 61.117 26.3829 61.1997C25.8866 61.2824 25.9693 61.7787 25.5558 61.8614V62.6884H25.4731ZM22.4131 81.7099V81.958H22.6612V81.7099H22.4131ZM33.0817 97.258C33.0817 97.4234 32.9163 97.8369 33.3298 97.7542C33.4953 97.5061 33.4126 97.258 33.0817 97.258ZM49.2914 96.679H49.126L49.2087 96.9272H49.3741C49.3741 96.8445 49.2914 96.7617 49.2914 96.679ZM49.3741 89.8148C49.4568 89.9802 49.5395 90.0629 49.7049 90.2283C50.1184 89.8148 50.5319 89.4839 51.1109 89.0704C51.0282 88.8223 50.9454 88.5742 50.78 88.3261C50.2838 88.6569 49.7876 89.1531 49.3741 89.8148ZM61.1178 118.264C61.4486 118.43 61.6968 118.595 61.8622 118.843C62.0276 118.678 62.1103 118.512 62.1103 118.264C61.9449 118.099 61.8622 117.934 61.8622 117.768C61.3659 118.016 60.8697 117.437 61.0351 117.107C60.9524 117.024 60.8697 117.107 60.7043 117.107C60.7043 117.52 60.8697 117.934 61.1178 118.264ZM64.674 109.911C64.7567 109.911 64.8394 109.911 64.9221 109.829H64.674V109.911ZM81.5453 110.904C81.5453 110.987 81.4626 111.069 81.4626 111.235C81.628 111.235 81.7107 111.317 81.7934 111.4C81.628 111.235 81.7934 111.152 81.7107 110.904C81.628 110.904 81.628 110.904 81.5453 110.904ZM87.9961 114.295L87.748 114.377L87.8307 114.625L88.0788 114.543L87.9961 114.295ZM102.634 111.731C102.965 111.814 103.213 112.062 103.379 112.31C103.544 112.31 103.792 112.227 103.958 112.144C104.123 112.144 104.123 112.062 104.04 111.896C103.792 111.731 103.379 111.731 103.048 111.896C102.965 111.814 102.8 111.648 102.634 111.565C102.717 111.648 102.634 111.648 102.634 111.731ZM107.927 91.3861C108.341 91.2207 108.754 90.9726 109.168 90.7245C109.085 90.3937 108.92 90.1456 108.589 90.0629C108.589 90.1456 108.672 90.3937 108.589 90.4764C108.424 90.7245 108.175 90.8072 108.01 90.9726C107.927 91.138 107.927 91.2207 107.927 91.3861ZM132.076 73.2743C132.076 73.1916 132.076 73.1916 132.076 73.2743V73.2743ZM127.693 53.0949V52.8468H127.362V53.0949H127.693ZM117.438 39.2009C117.19 39.6144 118.017 39.6144 118.017 39.3663C117.769 39.2836 117.769 39.1182 117.438 39.2009ZM104.785 27.9534C104.867 27.6226 104.785 27.3745 104.537 27.4572C104.537 27.7053 104.206 27.6226 104.288 27.9534C104.371 27.9534 104.454 27.9534 104.537 28.0361C104.619 28.0361 104.702 27.9534 104.785 27.9534ZM95.1912 28.1188C95.3566 28.1188 95.4393 28.0361 95.6047 27.8707C95.3566 27.8707 95.1085 27.788 95.1912 28.1188ZM83.4475 28.8631C83.3648 28.7804 83.3648 28.7804 83.4475 28.8631V28.8631ZM65.0048 33.9907C64.8394 33.9907 64.5913 33.908 64.4259 33.8253C64.2605 34.1561 64.0951 34.4042 63.9297 34.6523C64.3432 34.4869 64.674 34.2388 65.0048 33.9907ZM62.4411 25.8858C62.6065 25.8031 62.6892 25.6377 62.7719 25.555C62.4411 25.3069 62.0276 25.2242 61.5313 25.3069C61.6968 25.6377 62.0276 25.8031 62.4411 25.8858ZM53.6746 26.7129C53.3438 26.8783 53.2611 26.7956 53.2611 26.6302C53.1784 26.7129 53.0957 26.7956 53.013 26.8783L53.0957 26.961C53.3438 27.2091 53.5919 27.2091 53.84 27.0437L53.6746 26.7129ZM32.0893 40.1933C31.345 40.276 30.518 40.1933 29.8563 40.0279C30.3526 40.5242 29.8564 41.5166 29.9391 42.1782C30.1872 42.1782 30.3526 42.1782 30.6007 42.1782C31.0969 41.5166 31.9239 41.0204 32.0893 40.1933ZM22.2477 62.4403C22.4131 62.6057 22.4958 62.7711 22.4958 62.8538C22.5785 62.6057 22.5785 62.3576 22.4958 62.1922C22.9094 61.7787 23.6537 61.696 23.571 60.7862C23.9845 60.7035 24.0672 60.3727 24.2326 60.0419C23.9018 60.0419 23.4883 60.0419 23.0748 60.1246C23.0748 60.9516 23.0748 61.7787 22.2477 62.4403ZM26.7964 90.9726C26.7964 91.3034 26.8791 91.6342 27.0445 91.965C27.1272 92.0477 27.2926 92.1304 27.3753 92.1304C27.2099 91.6342 27.458 91.5515 27.6234 91.3861C27.2926 91.3861 27.2099 90.8899 26.7964 90.9726ZM29.3601 93.0401C29.3601 93.1228 29.2774 93.2883 29.1947 93.371C29.2774 93.4537 29.4428 93.4537 29.5255 93.5364C29.5255 93.4537 29.6082 93.371 29.6909 93.371C29.7736 93.371 29.7736 93.2882 29.7736 93.2055C29.6909 93.1228 29.6909 93.0401 29.3601 93.0401ZM28.8639 96.679C29.0293 97.0099 29.112 97.258 29.2774 97.5888C29.5255 97.3407 30.0218 97.258 30.2699 96.8445C29.8563 97.1753 29.1947 97.0926 28.8639 96.679ZM32.6682 98.7466C32.6682 98.8293 32.7509 98.8293 32.8336 98.8293C32.7509 98.7466 32.7509 98.7466 32.6682 98.7466ZM33.6607 102.055C33.6607 101.972 33.6607 101.889 33.6607 101.807C33.578 101.724 33.4126 101.724 33.3298 101.641C33.4953 101.807 33.578 101.889 33.6607 102.055ZM44.8255 104.37C45.4871 104.784 45.9833 105.363 46.066 106.107C46.4795 105.859 47.0584 105.611 47.1411 105.115C46.4795 105.032 45.8179 104.618 45.6525 104.04C45.4044 104.04 45.239 103.957 45.0736 103.957C44.9909 104.122 44.9082 104.288 44.8255 104.37ZM49.953 100.318C50.0357 100.483 50.2011 100.649 50.3665 100.566C50.2838 100.401 50.2011 100.153 49.953 100.318ZM49.7876 99.4082C50.2011 99.3255 50.6146 99.5736 50.8627 100.07C50.8627 99.9871 50.8627 99.9871 50.8627 99.9044C50.3665 99.4082 50.1184 98.6639 50.2838 98.0023C50.2011 97.8369 49.953 97.9196 49.7876 97.8369C49.7049 97.8369 49.5395 97.8369 49.3741 97.8369C49.3741 97.4234 48.7952 97.3407 48.5471 97.5888C48.7125 97.8369 48.7952 98.0023 48.9606 98.2504C49.2087 98.5812 49.8703 98.8293 49.7876 99.4082ZM57.3135 100.814C56.3211 100.235 56.1557 101.807 56.2384 102.22C56.9 101.972 57.2308 101.393 57.3135 100.814ZM60.8697 102.716C60.9524 102.799 61.1178 102.882 61.2832 103.13C61.4486 103.047 61.614 103.047 61.7795 102.964C61.8622 103.13 62.0276 103.213 62.193 103.378C62.2757 103.213 62.6065 103.13 62.7719 103.047C62.7719 102.882 62.7719 102.799 62.7719 102.716C62.2757 102.716 62.1103 102.137 61.6141 101.807C61.4486 102.137 61.2832 102.303 60.787 101.972V102.716H60.8697ZM58.6368 116.941C58.4714 116.941 58.2233 117.024 58.1406 117.189C58.306 117.272 58.3887 117.355 58.4714 117.437C58.6368 117.355 58.7195 117.107 58.6368 116.941ZM99.7398 116.528C99.9052 116.528 99.9879 116.445 99.6571 116.362C99.6571 116.445 99.7398 116.445 99.7398 116.528ZM107.018 114.377V114.625H107.266V114.543C107.183 114.46 107.183 114.46 107.1 114.377H107.018C107.018 114.295 107.018 114.295 107.018 114.377ZM122.318 101.062L122.4 101.31L122.648 101.228L122.566 100.98L122.318 101.062ZM131.415 95.025H131.58C131.58 94.9423 131.663 94.8596 131.663 94.7769H131.415V95.025ZM132.573 72.7781C132.903 72.6127 133.4 72.4473 133.317 72.1164C133.152 72.3646 132.821 72.53 132.573 72.7781ZM113.386 29.2766C113.138 29.0285 112.724 28.8631 112.145 28.6977C111.732 28.6977 111.153 28.8631 110.822 29.1112C110.987 29.1112 110.987 29.1939 110.987 29.3593C110.822 29.3593 110.574 29.442 110.408 29.5247C110.491 29.6074 110.491 29.6074 110.491 29.6901C111.235 29.8556 111.98 30.1037 112.641 30.4345C112.641 29.9382 113.22 29.6901 113.386 29.2766ZM110.491 27.8707C110.408 27.8707 110.243 27.8707 110.078 27.8707C110.078 28.0361 110.243 28.1188 110.491 28.1188V27.8707ZM104.537 27.1264C104.785 27.1264 104.95 26.961 104.95 26.7129C104.867 26.7956 104.702 26.7956 104.537 26.7956C104.537 26.8783 104.537 27.0437 104.537 27.1264ZM98.1685 25.8031C98.1685 25.6377 98.1685 25.4723 98.0858 25.3069C97.9204 25.4723 97.9204 25.6377 98.0858 25.8031H98.1685ZM83.034 18.1118L83.2821 18.0291C83.2821 17.9464 83.1994 17.8637 83.1994 17.781L82.9513 17.8637C82.9513 17.9464 83.034 18.0291 83.034 18.1118ZM66.907 20.0967C66.907 20.0967 66.907 20.0967 66.8243 20.1794C66.907 20.1794 66.907 20.1794 66.9897 20.1794C66.9897 20.1794 66.9897 20.0967 66.907 20.0967ZM67.4032 22.4123H67.0724V22.6604H67.4032V22.4123ZM60.2081 22.2469C60.5389 22.495 60.6216 21.8334 60.3735 21.8334C60.3735 21.9161 60.2908 21.9988 60.2081 21.9988V22.2469ZM48.6298 33.2463C48.5471 33.0809 48.3817 32.9982 48.1336 32.9155C47.8028 33.329 47.5547 33.7426 47.1411 34.1561C47.1411 34.2388 47.2238 34.4042 47.2238 34.4042C47.6374 34.4869 48.2163 34.1561 48.7125 34.1561C48.7952 34.1561 48.7952 34.1561 48.7952 34.1561C49.4568 33.908 50.1184 33.4945 50.5319 32.9982C50.1184 32.9982 49.7876 32.9155 49.3741 32.7501C49.0433 32.9155 48.8779 33.0809 48.6298 33.2463ZM41.1866 33.4118C41.352 33.329 41.6001 33.2463 41.6001 33.0809C41.4347 33.1636 41.2693 33.2463 41.1866 33.4118ZM26.4656 37.2161C26.5483 37.2161 26.631 37.2161 26.7137 37.1334L26.4656 37.2161C26.5483 37.2161 26.5483 37.2161 26.4656 37.2161ZM34.7358 106.438C34.5704 106.934 34.4877 107.348 34.405 107.844C35.0666 107.927 35.5628 108.34 36.1417 108.505C36.059 107.513 35.3974 107.017 34.7358 106.438ZM35.5628 105.694C35.7282 105.776 36.7206 105.694 36.7206 105.363C36.4725 105.197 35.5628 105.363 35.5628 105.694ZM35.4801 103.791C35.8936 104.04 36.3071 104.205 36.7206 104.37C36.4725 103.874 36.059 103.543 35.5628 103.213C35.5628 103.378 35.4801 103.626 35.4801 103.791ZM38.1266 108.092C37.8785 108.34 37.5477 108.588 37.6304 109.084C38.292 109.333 38.292 108.588 38.1266 108.092ZM38.9536 108.092C39.0363 108.175 39.0363 108.175 39.119 108.175C39.119 108.175 39.0363 108.092 38.9536 108.092ZM41.352 105.032C41.352 105.197 41.5174 105.445 41.6001 105.528C41.6828 105.28 41.6828 105.032 41.5174 104.867C41.4347 104.949 41.4347 104.949 41.352 105.032ZM42.9233 106.438C43.0887 106.19 43.2541 106.19 43.3368 106.273C43.2541 105.942 43.2541 105.611 43.3368 105.28C42.9233 105.363 43.0887 104.949 42.6752 105.032C42.4271 105.28 42.3444 105.611 42.2617 105.942C42.5098 106.024 42.7579 106.19 42.9233 106.438ZM49.953 110.077V110.325H50.2011V110.16L50.1184 110.077H49.953ZM54.7498 103.047C54.9152 103.13 55.0806 103.13 55.1633 103.213C55.1633 103.047 55.0806 102.964 54.7498 103.047ZM57.4789 122.151C57.4789 122.234 57.5616 122.234 57.5616 122.234L57.4789 122.151ZM61.1178 128.106C61.1178 128.106 61.0351 128.023 60.9524 127.941C61.0351 128.023 61.1178 128.023 61.1178 128.106ZM61.3659 128.602L61.6141 128.519L61.5313 128.271L61.2832 128.354C61.2832 128.437 61.3659 128.519 61.3659 128.602ZM64.2605 125.625C64.2605 125.708 64.2605 125.79 64.3432 125.79C64.4259 125.79 64.4259 125.708 64.5086 125.708C64.4259 125.625 64.3432 125.625 64.2605 125.625ZM94.3642 118.512C94.4469 118.43 94.6123 118.264 94.695 118.099C94.6123 117.768 94.5296 117.437 94.695 117.272C94.0334 116.858 93.2064 116.528 92.5447 116.114C92.1312 116.445 91.7177 116.61 91.2215 116.693C90.9734 117.272 90.7253 117.851 90.3945 118.347C90.5599 118.512 90.6426 118.761 90.6426 119.009C91.8004 119.422 93.2063 118.595 94.3642 118.512ZM106.273 115.701C106.439 115.701 106.604 115.618 106.687 115.535C106.77 115.204 106.77 114.956 106.687 114.625C106.521 114.708 106.273 114.625 106.273 114.791C106.77 115.122 105.777 115.204 105.694 115.452C105.694 115.618 106.273 115.452 106.273 115.701ZM109.499 107.017C109.581 107.017 109.581 107.017 109.499 107.017V107.017ZM111.318 108.34C111.235 108.423 111.235 108.505 111.153 108.671C111.401 108.671 111.732 108.175 111.401 108.257C111.401 108.257 111.401 108.257 111.318 108.34ZM135.302 89.0704C135.385 89.1531 135.467 89.1531 135.467 89.1531C135.467 89.0704 135.385 89.0704 135.302 89.0704ZM121.077 38.2085C121.408 37.795 121.656 37.3815 121.739 36.8852C121.16 37.2161 120.498 37.4642 119.837 37.5469C120.167 37.8777 120.664 38.1258 121.077 38.2085ZM112.145 25.3896C112.145 25.3896 112.228 25.3069 112.311 25.3896C112.062 25.2242 111.98 24.8934 111.484 24.9761C111.732 25.1415 111.897 25.2242 112.145 25.3896ZM100.732 21.1718C100.65 21.1718 100.65 21.1718 100.65 21.2545C100.65 21.3372 100.732 21.4199 100.815 21.4199C100.732 21.3372 100.732 21.2545 100.732 21.1718ZM83.3648 18.1945C83.4475 18.1945 83.5302 18.1118 83.6956 18.0291C83.6129 18.0291 83.4475 18.0291 83.3648 18.1118V18.1945ZM79.2297 17.2848C78.9815 16.954 78.6507 16.7059 78.0718 16.7059C78.4026 17.3675 78.8161 17.9464 79.4778 18.3599C79.3951 18.0291 79.3124 17.6156 79.2297 17.2848ZM75.5908 17.6983C76.087 17.6156 75.9216 17.0367 75.508 17.2021C75.5908 17.4502 75.2599 17.5329 75.5908 17.6983ZM74.681 17.6983L74.9291 17.6156L74.8464 17.3675L74.5983 17.4502L74.681 17.6983ZM41.5174 25.8858C41.6001 26.2166 41.8482 26.2166 42.179 26.0512C42.0136 25.8031 41.6828 25.555 41.5174 25.8858ZM27.0445 34.9004C26.9618 34.9004 26.8791 34.9004 26.7964 34.8177V34.9004H27.0445ZM8.35374 63.9289C8.35374 64.2597 8.27104 64.5078 8.18833 64.8386C8.27104 65.0868 8.35374 65.4176 8.43644 65.7484C8.76725 65.6657 8.60185 65.4176 9.01536 65.4176L8.68455 64.4251L9.26346 64.2597C9.18076 64.0116 9.09806 63.8462 9.01536 63.5981C8.76725 63.7635 8.60185 63.8462 8.35374 63.9289ZM14.3083 96.1828C14.5564 96.7617 14.9699 97.3407 15.5488 97.6715C15.7142 97.3407 15.8797 97.0099 15.9624 96.5964C15.5488 96.3482 15.1353 96.0174 14.7218 95.6866C14.5564 95.852 14.391 96.0174 14.3083 96.1828ZM18.4434 101.558C18.9396 101.641 19.105 102.055 19.5186 102.551C19.684 102.551 19.7667 102.551 19.9321 102.551C19.8494 102.137 19.5186 102.303 19.5186 101.889C19.7667 101.889 19.7667 101.724 19.684 101.558C19.6013 101.476 19.5186 101.393 19.5186 101.31C19.105 101.31 18.6915 101.228 18.278 101.062C18.3607 101.228 18.4434 101.393 18.4434 101.558ZM19.684 102.964C19.684 103.047 19.7667 103.13 19.8494 103.13H19.9321L19.8494 102.882L19.684 102.964ZM21.338 96.2655C21.4207 96.7617 21.5034 97.258 21.7515 97.6715C21.9996 97.3407 22.0823 96.9272 21.9996 96.5964C21.8342 96.4309 21.5861 96.2655 21.338 96.2655ZM48.6298 110.656C48.7952 110.738 48.8779 110.738 48.9606 110.821C48.9606 110.656 48.8779 110.573 48.7952 110.49C48.7125 110.573 48.7125 110.573 48.6298 110.656ZM52.7649 111.317C52.5168 111.483 52.3514 111.648 52.186 111.731C52.5168 111.896 52.8476 111.979 53.3438 112.062C53.0957 111.814 52.9303 111.565 52.7649 111.317ZM55.4114 114.956C55.1633 114.956 54.9152 114.956 54.9979 115.204C55.1633 115.204 55.3287 115.122 55.4114 114.956ZM54.2535 122.73H54.3362C54.3362 122.648 54.3362 122.482 54.2535 122.482C54.2535 122.482 54.2535 122.565 54.1708 122.565C54.2535 122.648 54.2535 122.648 54.2535 122.73ZM62.5238 129.181C62.9373 129.181 63.847 129.429 63.5989 128.602C63.02 129.098 62.9373 128.519 62.193 128.602C62.1103 128.933 62.5238 128.768 62.5238 129.181ZM66.9897 131.001C67.0724 131.001 67.1551 131.083 67.2378 131.166C67.2378 130.918 67.3205 130.67 66.9897 130.752V131.001ZM85.4323 126.865C85.5977 126.865 85.6804 126.783 85.9285 126.7C85.7631 126.535 85.6804 126.369 85.7631 126.121C85.515 126.121 85.2669 126.121 85.0188 126.204C85.2669 126.286 85.515 126.452 85.4323 126.865ZM94.1988 130.752C94.1988 130.67 94.1988 130.587 94.2815 130.339C93.868 130.256 93.868 130.587 93.4545 130.504C93.5372 130.091 93.1236 130.256 92.8755 130.256C92.7101 130.752 92.462 131.083 92.1312 131.414C92.6274 131.662 92.9582 131.249 93.1236 130.835C93.3717 130.835 93.7853 130.835 94.1988 130.752ZM104.785 125.294V125.708H105.033C105.033 125.625 105.198 125.542 105.198 125.459C105.033 125.377 105.033 125.294 104.785 125.294ZM112.311 112.641C112.807 112.31 113.303 111.896 113.717 111.483C113.468 111.483 113.303 111.4 113.055 111.317C112.724 111.731 112.476 112.144 112.311 112.641ZM122.566 106.438C122.069 106.521 122.152 106.851 122.152 107.1C122.318 107.1 122.566 106.934 122.731 106.769L122.566 106.438ZM128.686 117.355C128.768 117.934 127.941 117.685 128.024 118.264H129.182C129.099 118.016 129.265 117.437 128.686 117.355ZM130.174 108.671C130.257 108.588 130.174 108.505 130.174 108.423V108.671ZM140.76 89.4012C140.595 89.4012 140.512 89.2358 140.347 89.4012L140.429 89.6494C140.678 89.732 140.76 89.6493 140.76 89.4012ZM142.414 50.0349C142.332 50.1176 142.083 50.1176 142.083 50.283C142.166 50.283 142.249 50.283 142.249 50.3657C142.414 50.283 142.58 50.2003 142.414 50.0349ZM143.407 59.7111C143.407 59.7938 143.407 59.9592 143.407 60.0419C143.489 60.0419 143.572 60.0419 143.572 60.0419C143.489 59.8765 143.489 59.7938 143.407 59.7111ZM145.722 60.3727L145.805 60.5381C145.805 60.4554 145.888 60.3727 145.97 60.29L145.722 60.3727ZM145.557 59.7938L145.309 59.8765C145.309 59.9592 145.392 60.0419 145.392 60.1246L145.64 60.0419L145.557 59.7938ZM145.143 80.4694H145.309C145.392 80.304 145.474 79.9732 145.061 80.0559C145.143 80.1386 145.061 80.3867 145.143 80.4694ZM146.053 71.0413C146.053 71.0413 146.053 71.0413 146.053 70.9586H145.888C145.97 70.9586 145.97 71.0413 146.053 71.0413ZM145.888 68.8911V68.643H145.557V68.8911H145.888ZM144.895 87.1683C144.813 87.7472 144.73 88.2434 144.647 88.7396C144.647 88.8223 144.647 88.905 144.647 88.9877C144.895 88.905 145.226 88.8223 145.309 89.1531C146.384 88.7396 145.143 87.9953 145.722 87.4164C145.392 87.4164 145.226 87.1683 144.895 87.1683ZM145.392 68.2294C146.219 68.1467 147.046 67.5678 147.376 66.6581C147.046 66.3273 146.797 65.9965 146.549 65.583C145.061 66.4927 144.895 67.9813 143.986 69.2219C144.234 69.2219 144.482 69.2219 144.73 69.3046C145.061 68.7257 144.895 68.5602 145.392 68.2294ZM145.143 59.3803C145.143 59.0495 144.978 58.636 144.73 58.3879C144.399 58.1398 144.399 57.6435 143.903 57.5608L143.82 57.6435C143.903 58.3879 144.399 59.1322 145.143 59.3803ZM143.324 65.1695C143.159 65.1695 143.076 65.1695 142.993 65.1695C143.076 65.3349 143.076 65.4176 143.159 65.583C143.241 65.4176 143.241 65.3349 143.324 65.1695ZM135.302 51.689C134.309 51.4409 133.813 54.0873 133.152 54.749C133.317 54.9971 133.565 55.2452 133.813 55.4106C134.227 54.9971 134.806 54.6663 135.302 54.3354C135.302 54.17 135.302 54.0046 135.219 53.8392C135.633 53.6738 135.963 53.1776 135.881 52.6814C135.881 52.516 135.219 51.689 135.302 51.689ZM133.4 50.6965C133.565 50.5311 133.813 50.4484 133.73 50.0349C133.234 50.0349 133.234 50.3657 133.152 50.6965C133.317 50.6965 133.482 51.1928 133.565 50.8619C133.482 50.7792 133.4 50.7792 133.4 50.6965ZM131.498 45.6517C131.58 45.569 131.58 45.4863 131.498 45.4863C131.498 45.4863 131.498 45.569 131.498 45.6517ZM112.145 18.1118C112.145 18.1945 112.145 18.2772 112.145 18.4426L112.228 18.5253C112.228 18.4426 112.228 18.4426 112.311 18.4426C112.393 18.2772 112.476 18.1118 112.145 18.1118ZM110.408 17.6983V17.5329H110.326L110.408 17.6983ZM109.995 18.3599C109.995 18.3599 109.995 18.4426 110.078 18.5253C110.16 18.4426 110.16 18.4426 110.16 18.3599C110.078 18.3599 110.078 18.3599 109.995 18.3599ZM110.491 15.1345C110.408 15.0518 110.243 14.9691 110.16 14.8864C110.16 14.8864 110.078 14.9691 109.995 14.9691C109.995 15.0518 110.078 15.2172 110.078 15.2999C110.243 15.2999 110.408 15.2172 110.491 15.1345ZM73.6059 11.4129L73.2751 11.4956V11.5783C73.2751 11.661 73.3578 11.661 73.3578 11.661C73.5232 11.661 73.6059 11.5783 73.7713 11.5783V11.4956C73.6886 11.4956 73.6059 11.4956 73.6059 11.4129ZM58.306 18.1945C58.2233 18.1945 58.2233 18.1945 58.2233 18.1945C58.2233 18.2772 58.2233 18.2772 58.2233 18.3599C58.2233 18.2772 58.306 18.2772 58.306 18.1945ZM53.84 19.7659C53.1784 19.8486 52.4341 20.014 51.8552 20.1794C51.6071 20.2621 51.359 20.5102 51.359 20.841C52.3514 21.1718 53.4265 21.3372 54.5016 21.4199C54.8325 21.0891 55.1633 20.841 55.6595 20.7583C55.5768 20.5929 55.4114 20.4275 55.4941 20.1794L55.5768 20.0967C54.8325 20.0967 54.3362 20.1794 53.84 19.7659ZM48.6298 23.9837C48.5471 24.0664 48.5471 23.9837 48.4644 23.9837C48.4644 23.9837 48.3817 24.0664 48.3817 24.1491C48.4644 24.1491 48.6298 24.0664 48.6298 23.9837ZM44.6601 22.9913C44.8255 22.9913 44.9082 22.9086 44.9909 22.8258C44.9082 22.8258 44.7428 22.9086 44.6601 22.9913ZM39.119 21.668C40.1114 20.9237 40.8558 19.9313 41.352 18.7734C41.1866 19.0215 41.0212 19.1869 40.7731 19.2696C40.0287 19.6832 40.1941 19.6832 39.7806 20.0967C39.3671 20.5929 38.4574 21.0064 38.6228 21.5026C38.8709 21.668 38.9536 21.668 39.119 21.668ZM28.9466 21.9161C29.112 21.7507 29.2774 21.668 29.3601 21.5026C29.0293 21.5026 28.9466 21.7507 28.8639 21.9988L28.9466 21.9161ZM22.4131 28.5323C22.2477 29.2766 23.0748 28.615 22.4131 28.5323V28.5323ZM10.3386 45.7344C10.3386 45.569 10.504 45.3209 10.2559 45.4036V45.8998L10.3386 45.7344ZM25.5558 105.859C26.8791 105.528 26.7964 104.618 26.8791 103.709C26.7964 103.709 26.7137 103.626 26.7137 103.626L26.052 103.791C25.7212 103.213 24.8942 103.461 24.5634 103.047C24.398 103.295 24.3153 103.543 24.3153 103.791C24.8942 104.288 25.3077 105.032 25.5558 105.859ZM29.8563 110.242C29.9391 110.904 30.518 111.317 31.2623 111.731C31.2623 111.4 31.345 110.987 31.345 110.656C30.7661 110.656 30.2699 110.49 29.8563 110.242ZM38.4574 113.798C38.2093 114.212 38.5401 114.46 38.3747 115.039C40.1114 115.122 41.6001 116.114 43.1714 116.28C42.179 115.783 41.0212 115.535 40.525 114.708C40.3596 114.791 40.1114 114.791 39.8633 114.708C39.6979 114.129 39.0363 114.047 38.4574 113.798ZM50.3665 113.302C50.2838 113.55 50.2011 113.881 50.1184 114.129C50.4492 114.295 50.6973 114.377 51.1109 114.543C51.1109 114.46 51.1936 114.377 51.359 114.377C52.4341 115.122 53.5919 115.618 54.8325 115.866C54.8325 115.452 54.7498 115.039 54.5844 114.625C53.7573 114.295 52.8476 114.047 52.0206 113.881C52.3514 113.798 52.186 113.55 52.5995 113.55C53.0957 113.716 53.6746 113.633 54.0881 113.385C54.0054 113.302 54.0054 113.137 53.9227 113.054C53.1784 113.22 51.9379 112.889 51.6898 113.798C51.2763 113.633 51.7725 113.468 51.6071 113.137C51.1936 113.137 51.359 113.468 51.1936 113.55C50.78 113.468 50.6146 113.385 50.3665 113.302ZM50.6973 117.355C50.6146 117.685 50.6973 117.934 50.8627 118.264C50.9454 118.182 50.9454 118.182 51.0282 118.182C51.1936 119.009 52.186 118.512 52.6822 118.843C52.8476 118.678 52.8476 118.43 52.8476 118.264C51.9379 118.182 51.6898 117.437 50.6973 117.355ZM63.9297 129.181C64.2605 129.76 64.9221 129.925 65.4184 130.256C65.5011 130.173 65.5838 130.173 65.6665 130.173C65.6665 130.091 65.7492 130.008 65.7492 129.925C65.5011 129.843 65.3357 129.76 65.0875 129.677C64.9221 129.098 64.5086 129.181 63.9297 129.181ZM94.695 130.67C94.695 130.67 94.7777 130.67 94.8604 130.67H94.695ZM95.9355 126.783C95.8528 126.948 95.8528 127.196 95.8528 127.444C97.2588 127.362 98.0858 127.031 99.2436 127.61C99.1609 127.444 99.409 127.444 99.5744 127.362L99.409 126.865C98.3339 127.196 98.0858 126.038 97.4242 125.708C97.3415 125.708 97.2588 125.79 97.1761 125.79C96.7626 126.038 96.7626 126.617 96.0182 126.7L95.9355 126.783ZM105.694 124.467C106.108 124.55 106.521 124.55 107.018 124.302C106.852 124.054 106.687 123.888 106.521 123.64C106.356 123.971 106.108 124.302 105.694 124.467ZM110.243 121.821C110.078 122.069 109.747 122.317 109.995 122.648C110.16 122.648 110.243 122.648 110.408 122.648C109.995 121.903 111.07 122.317 110.987 121.572C110.739 121.738 110.491 121.738 110.243 121.821ZM111.98 119.505C112.062 119.422 112.145 119.257 112.062 119.174C111.897 119.174 111.814 119.257 111.732 119.339C111.814 119.339 111.897 119.422 111.98 119.505ZM139.189 44.742C139.272 44.4112 139.189 44.3285 138.858 44.3285V44.742H139.189ZM137.452 43.0052C137.618 42.7571 137.783 42.5917 137.866 42.4263C137.535 41.8474 137.121 41.2685 136.377 41.1858C136.708 41.682 136.542 41.8474 136.625 42.3436C137.039 42.0955 136.956 42.6744 137.204 42.6744C137.369 42.7571 137.369 42.9225 137.452 43.0052ZM136.377 33.329C136.294 33.329 136.212 33.329 136.046 33.1636C136.129 33.329 136.129 33.4118 136.212 33.4945C136.294 33.4945 136.294 33.4118 136.377 33.329ZM132.407 28.2015C132.325 28.2842 132.242 28.2015 132.159 28.2015C132.242 28.2015 132.325 28.2015 132.407 28.2015C132.407 28.2842 132.407 28.2842 132.407 28.2015ZM121.408 16.5405C121.408 16.7059 121.573 16.7886 121.573 16.954L121.821 16.8713L121.656 16.5405C121.573 16.5405 121.491 16.5405 121.408 16.5405ZM122.318 17.3675L122.566 17.2848L122.483 17.0367L122.235 17.1194L122.318 17.3675ZM121.573 15.3826C121.904 15.1345 121.987 15.4653 122.318 15.2999C122.318 14.8864 121.491 14.9691 121.573 15.3826ZM121.573 14.3902C121.491 14.3075 121.491 14.3075 121.573 14.3902C120.912 14.0594 120.085 13.894 119.506 13.894C119.671 14.3075 119.506 14.5556 119.588 14.9691C120.085 15.1345 120.829 14.6383 121.077 14.3902C121.408 14.3902 121.573 14.9691 122.069 14.8864C121.821 14.721 121.739 14.5556 121.573 14.3902ZM119.754 20.3448C119.588 19.3524 118.431 20.0967 118.017 19.4351C117.852 19.7659 117.438 19.8486 117.438 20.3448C118.1 20.4275 118.596 20.7583 119.34 20.841C119.423 20.5929 119.423 20.3448 119.754 20.3448ZM112.393 11.9918C112.393 12.0745 112.145 12.2399 112.393 12.4054C112.393 12.2399 112.641 12.0745 112.393 11.9918ZM110.491 11.0821V10.6686H110.078C110.078 10.9994 110.16 11.0821 110.491 11.0821ZM109.003 10.6686C109.416 10.834 109.416 10.0897 109.003 10.2551V10.6686ZM105.694 7.77402C105.694 7.60862 105.777 7.52591 105.694 7.44321L105.281 7.52591L105.364 7.77402C105.529 7.69132 105.612 7.77402 105.694 7.77402ZM101.477 7.36051C102.304 7.44321 103.213 7.52591 103.875 7.60862C103.627 7.52591 103.461 7.44321 103.296 7.27781C102.138 7.77402 101.973 6.69889 101.063 6.78159C101.063 6.8643 101.063 6.8643 101.063 6.8643C101.146 6.8643 101.146 6.947 101.228 7.0297C101.311 7.1124 101.477 7.1124 101.477 7.36051ZM96.1836 12.4881L96.4317 12.4054L96.349 12.1572L96.1009 12.2399L96.1836 12.4881ZM88.8231 6.45078C88.8231 6.28538 89.1539 6.36808 89.0712 6.03727H88.6577C88.7404 6.20268 88.6577 6.45078 88.8231 6.45078ZM74.0194 5.95457C74.1848 6.11997 74.5156 6.11997 74.5983 5.78916C74.4329 5.62376 74.0194 5.62376 74.0194 5.95457ZM74.2675 6.36808C74.0194 6.28538 73.7713 6.45078 73.6886 6.69889C73.854 6.61619 74.1021 6.53349 74.2675 6.45078V6.36808ZM63.4335 8.93185C63.5162 9.01456 63.6816 9.01456 63.7643 9.01456C63.6816 9.01456 63.5989 9.01456 63.5989 8.93185C63.5162 8.93185 63.5162 8.93185 63.4335 8.93185ZM42.9233 21.0891C43.006 21.0064 43.006 20.9237 43.0887 20.9237H42.9233V21.0891ZM35.8936 16.7886C35.8109 16.8713 35.7282 16.8713 35.6455 16.8713V17.0367C35.7282 16.954 35.8109 16.8713 35.8936 16.7886ZM24.3153 24.6453C24.0672 25.2242 23.7364 25.6377 23.2402 25.9685C23.4883 25.9685 23.8191 25.9685 24.0672 25.8031C24.6461 26.6302 25.0596 25.4723 25.9693 25.6377C26.5483 24.8107 27.458 24.2318 27.8715 23.4048C27.9542 23.2394 27.7061 22.9086 28.1196 22.8258C28.2023 22.9086 28.285 22.9913 28.285 22.8258C28.0369 22.9086 28.2023 22.5777 28.4504 22.3296C27.6234 22.2469 27.7061 22.9086 26.7137 22.8258C26.2174 23.6529 25.3077 24.2318 24.3153 24.6453ZM18.1126 31.9231C17.9472 31.7577 17.5337 31.8404 17.5337 32.1712C17.8645 32.2539 18.1126 32.1712 18.1126 31.9231ZM17.2856 32.502C17.2029 32.6674 17.1202 32.7501 17.1202 32.9982H17.5337C17.5337 32.7501 17.6991 32.3366 17.2856 32.502ZM19.3532 34.4042C18.1953 34.2388 17.7818 35.8101 16.7067 36.0582C16.7067 36.389 16.5413 36.6371 16.2932 36.8852C16.4586 36.8852 16.5413 36.8852 16.7067 36.8852C16.7067 36.8852 16.7067 36.8025 16.7067 36.7198C17.8645 36.7198 17.3683 35.4793 18.8569 35.8101C19.0223 35.562 19.105 35.3966 19.1877 35.2312C19.1877 34.9831 19.1877 34.6523 19.3532 34.4042ZM14.5564 39.3663C14.3083 39.1182 13.9775 39.0355 13.564 39.0355V39.5317C13.1505 39.9452 11.9926 40.1106 11.4964 40.6896C11.4137 40.855 11.4964 41.2685 11.2483 41.5993C11.0002 42.0128 10.504 42.3436 10.2559 42.7571C10.3386 42.8398 10.4213 42.8398 10.504 42.9225C10.4213 42.9225 10.3386 42.9225 10.2559 42.9225C10.2559 43.0879 10.2559 43.2533 10.3386 43.4187C9.18076 43.9149 10.4213 44.8247 10.504 45.569C11.2483 44.8247 12.0753 43.9977 12.6543 43.0879C13.1505 43.0052 12.9851 42.509 13.6467 42.4263C13.8121 42.2609 13.4813 41.9301 13.7294 41.8474C14.8045 41.5993 14.4737 40.1933 15.5488 40.5242C15.4661 40.0279 15.3834 39.7798 16.0451 39.5317C16.0451 39.449 16.0451 39.449 16.0451 39.3663L15.9624 39.1182C15.4661 39.1182 14.9699 38.9528 14.5564 39.3663ZM8.02293 88.4915C7.36131 88.6569 7.94023 89.2358 8.18833 89.4012C8.18833 89.3185 8.18833 89.1531 8.18833 89.0704C8.18833 88.905 8.10563 88.6569 8.02293 88.4915ZM8.02293 90.1456C8.10563 90.2283 8.18833 90.2283 8.18833 90.2283C8.10563 90.1456 8.10563 89.9802 8.02293 89.8975C8.02293 89.9802 8.02293 90.0629 8.02293 90.1456ZM9.01536 91.7996C9.09806 92.1304 8.76725 92.2958 8.93266 92.6266C9.01536 92.6266 9.18076 92.7093 9.26346 92.792C10.0905 92.5439 9.42887 91.965 9.01536 91.7996ZM10.1732 95.1077H9.92508C10.1732 95.5212 10.3386 95.852 10.5867 96.1828C10.5867 96.0174 10.5867 95.852 10.6694 95.7693C10.2559 95.7693 10.1732 95.5212 10.0078 95.2731C10.0905 95.2731 10.0905 95.1904 10.1732 95.1077ZM11.9926 98.085C11.9926 98.3331 11.6618 98.0023 11.4137 97.5061C11.4964 97.9196 11.4964 98.2504 11.4964 98.6639C11.9099 98.912 11.9099 98.6639 12.5716 98.6639V98.5812C12.4062 98.4985 12.158 98.4985 12.0753 98.4158C12.0753 98.4158 11.9926 98.4158 11.9099 98.3331C11.9099 98.2504 11.9926 98.1677 11.9926 98.085ZM35.3147 124.715C35.3147 125.046 35.3974 125.211 35.5628 125.211C35.6455 125.046 35.8109 124.963 35.7282 124.715H35.3147ZM35.7282 124.467C35.7282 124.384 35.6455 124.384 35.5628 124.302C35.6455 124.384 35.6455 124.467 35.7282 124.467ZM38.3747 127.61C38.2093 127.279 37.8785 127.031 37.5477 126.948C37.6304 127.196 37.465 127.444 37.7131 127.775C37.8785 127.61 38.1266 127.527 38.3747 127.61ZM58.8022 134.888C58.8022 135.053 58.7195 135.218 58.7195 135.301C59.2984 135.218 59.7946 135.632 60.2081 135.301C60.2081 135.466 60.2908 135.632 60.3735 135.715C60.787 135.715 61.2005 135.715 61.6968 135.632C60.787 135.136 59.6292 135.218 58.8022 134.888ZM62.8546 134.97C62.5238 135.218 62.193 135.384 61.7795 135.549C62.1103 135.466 62.6065 135.218 62.8546 134.97ZM121.491 124.384C121.408 124.384 121.408 124.384 121.491 124.384V124.384ZM133.73 108.092C133.813 108.092 133.979 108.092 134.144 108.009C134.144 108.009 134.144 108.009 134.144 107.927C134.061 107.927 133.896 108.009 133.73 108.092ZM137.204 100.897C137.039 100.98 136.873 101.145 136.79 101.393C136.956 101.228 137.121 101.062 137.204 100.897ZM140.595 97.5061C140.264 98.085 139.85 98.5812 139.272 99.0774L140.099 99.1601V99.0774C140.347 98.6639 141.339 97.8369 140.595 97.5061ZM147.046 92.2958C146.301 92.3785 147.211 92.792 147.046 92.2958V92.2958ZM147.376 84.3564C147.294 84.6045 147.542 84.6045 147.707 84.5218C147.79 84.5218 147.79 84.4391 147.79 84.4391C147.707 84.3564 147.707 84.3564 147.624 84.2737L147.376 84.3564ZM152.421 77.3267C152.421 77.244 152.339 77.244 152.256 77.244C152.256 77.3267 152.339 77.3267 152.421 77.3267ZM153.083 83.1986C153.083 82.9505 153.248 82.7023 153.496 82.4542C153.414 82.3715 153.414 82.3715 153.414 82.2888C153.331 82.2061 153.166 82.2061 153.083 82.2061C153 82.3715 152.917 82.6196 152.835 82.8678C152.752 83.0332 152.835 83.1986 153.083 83.1986ZM153.331 69.7181C153.414 69.8835 153.414 70.0489 153.496 70.2143C153.579 70.2143 153.744 70.2143 153.827 70.2143C153.827 69.9662 153.662 69.9662 153.662 69.7181H153.331ZM110.987 10.6686C110.822 11.0821 111.484 11.1648 111.732 10.834C111.566 10.7513 111.484 10.6686 111.318 10.5859C111.318 10.6686 111.07 10.6686 110.987 10.6686ZM87.0864 3.88701C87.0037 3.88701 86.8383 3.88701 86.8383 3.88701H87.0864ZM79.4778 4.21782C79.2297 4.05241 78.9815 3.96971 78.7334 4.05242C78.4026 4.38322 77.9891 4.54863 77.4929 4.54863C77.5756 4.63133 77.741 4.71403 77.741 4.87944C78.0718 4.38322 79.3951 4.87944 79.4778 4.21782ZM67.8994 7.1124C67.4032 7.36051 66.8243 7.52591 66.3281 7.69132C66.9897 7.77402 67.8167 7.93943 68.4783 8.27024C68.6438 8.18753 68.7265 8.02213 68.8919 7.93943C68.8092 7.36051 68.3129 7.27781 67.8994 7.1124ZM57.5616 10.4205C57.5616 10.3378 57.4789 10.1724 57.3135 10.0897C56.9827 10.1724 56.7346 10.3378 56.4865 10.5859C56.7346 10.5032 57.2308 10.4205 57.5616 10.4205ZM20.0148 27.8707V28.2842H20.2629C20.2629 28.2015 20.4283 28.1188 20.4283 28.0361C20.2629 27.9534 20.2629 27.8707 20.0148 27.8707ZM9.42887 36.389C9.34617 36.1409 9.34617 35.8928 9.01536 35.8101C8.76725 36.0582 8.60185 36.389 8.51915 36.7198C8.76725 36.8025 9.18076 36.5544 9.42887 36.389ZM7.0305 86.424C7.0305 85.9277 6.8651 85.4315 6.69969 84.9353C6.69969 85.1007 6.61699 85.2661 6.53429 85.3488C6.78239 85.6796 6.9478 86.0104 7.0305 86.424ZM3.63971 46.4787C3.63971 46.396 3.63971 46.2306 3.557 46.1479C3.557 46.3133 3.557 46.396 3.4743 46.4787C3.557 46.4787 3.557 46.4787 3.63971 46.4787ZM7.19591 87.251C7.19591 87.4991 7.19591 87.6645 7.27861 87.9126C7.36131 87.9126 7.36131 87.9953 7.44401 87.9953C7.60942 87.7472 7.36131 87.4991 7.19591 87.251ZM21.5861 114.46C21.6688 114.543 21.7515 114.625 21.8342 114.708C22.0823 114.625 22.2477 114.46 22.2477 114.377C22.0823 114.295 21.8342 114.377 21.5861 114.46ZM26.631 118.926C27.6234 118.843 28.1196 119.67 28.6158 120.58C28.9466 120.828 29.3601 121.076 29.7736 121.407C30.0218 121.407 30.1045 121.572 30.2699 121.821C30.4353 121.986 30.6007 122.151 30.7661 122.399C31.1796 122.565 31.5104 122.399 31.5931 122.813C31.6758 122.978 31.7585 123.227 31.8412 123.475C32.0066 123.144 32.3374 123.723 32.6682 123.64C31.2623 121.407 30.3526 119.339 28.6985 117.603C28.6985 117.107 28.2023 117.107 28.285 116.61C28.2023 116.445 27.7061 116.61 27.7061 116.362C27.7061 115.37 26.2174 115.204 26.7137 114.46L26.631 114.377C26.2174 114.295 25.9693 114.295 25.8866 113.633H25.4731C25.3904 114.129 25.0596 114.46 25.3077 114.956C24.7288 115.204 24.6461 115.866 24.4807 116.528C24.6461 116.445 24.6461 116.197 24.9769 116.197C25.3077 117.52 26.3829 117.603 26.631 118.926ZM47.5547 127.858L47.6374 127.941C47.6374 127.858 47.6374 127.858 47.6374 127.858H47.5547ZM103.296 132.985C102.8 132.985 102.8 133.233 102.965 133.564C103.131 133.564 103.296 133.564 103.461 133.482L103.296 132.985ZM104.206 132.82H104.371C104.702 132.82 105.115 132.655 105.033 132.324C104.619 132.324 104.288 132.572 104.206 132.82ZM111.401 130.422C111.566 130.422 111.732 130.339 111.814 130.256V130.173C111.649 130.173 111.649 130.008 111.566 129.843C111.153 129.925 111.401 130.173 111.401 130.422ZM133.73 19.8486C133.813 19.6005 133.648 19.3524 133.4 19.2696C133.482 19.5178 133.565 19.6832 133.73 19.8486ZM108.258 4.21782C108.093 4.21782 107.927 4.30052 107.845 4.46593C107.927 4.46593 107.927 4.54863 108.01 4.54863C108.093 4.46593 108.258 4.38322 108.258 4.21782ZM79.1469 0L78.8988 0.0827024L78.9815 0.330809L79.2297 0.248107L79.1469 0ZM44.2466 7.27781C44.1639 6.8643 43.4195 7.0297 43.5022 7.36051C43.6676 7.44321 43.9157 7.36051 44.2466 7.27781ZM23.3229 17.5329L23.0748 17.6156L23.1575 17.8637L23.4056 17.781L23.3229 17.5329ZM22.4131 18.7734C22.165 18.8561 21.6688 18.8561 21.9996 19.1869C22.165 19.1869 22.4958 19.1042 22.4131 18.7734ZM11.7445 31.5923C11.2483 31.675 11.331 32.0058 11.0002 31.8404C11.0002 32.1712 10.9175 32.502 10.8348 32.8328C11.0829 32.6674 11.331 32.4193 11.0829 32.0885C12.158 32.0058 11.9099 30.9307 12.8197 30.6826C12.5716 30.5172 12.4889 30.3518 12.4889 30.1864C11.9099 30.4345 11.6618 31.0134 11.7445 31.5923ZM9.84238 33.9907C9.75968 33.9907 9.75968 34.0734 9.75968 34.0734C9.75968 34.1561 9.75968 34.3215 9.75968 34.4042C9.84238 34.2388 9.84238 34.1561 9.84238 33.9907ZM2.89538 46.9749C2.81268 47.0576 2.64728 47.0576 2.48187 47.1403C2.56457 47.6366 2.48187 47.802 2.81268 48.1328C2.89538 48.0501 2.97809 48.0501 3.06079 47.9674C3.3089 47.7193 3.3916 47.223 3.14349 46.9749C2.81268 46.9749 3.22619 47.5539 2.72998 47.3884C2.81268 47.223 2.81268 47.1403 2.89538 46.9749ZM2.15106 49.456C2.06836 49.6214 1.98566 49.7868 2.06836 50.0349C2.06836 49.8695 2.06836 49.6214 2.15106 49.456ZM0.331612 54.5009C0.166207 54.5836 -0.0819002 54.5835 0.000802152 54.749C0.0835045 54.749 0.166207 54.749 0.166207 54.8317C0.331612 54.749 0.497016 54.6663 0.331612 54.5009ZM0.0835045 80.2213C0.0835045 80.304 0.166207 80.4694 0.331612 80.5521C0.248909 80.3867 0.166207 80.2213 0.0835045 80.2213ZM3.88781 88.905C3.88781 88.9877 3.88781 89.0704 3.88781 89.0704H3.97052C3.88781 88.9877 3.88781 88.9877 3.88781 88.905ZM4.21862 92.2131C4.13592 91.7996 4.38403 91.7169 4.79754 91.7169C4.71484 91.5515 4.71484 91.4688 4.63213 91.3034C4.46673 91.3034 4.38403 91.3034 4.21862 91.3034C4.05322 91.5515 3.63971 92.1304 4.21862 92.2131ZM5.12835 101.062H5.04565V100.814H4.79754V101.062H5.12835ZM4.88024 91.965C4.79754 92.4612 5.21105 92.8747 5.37645 93.4537C5.45916 93.4537 5.45916 93.4537 5.54186 93.4537C5.54186 93.2056 5.54186 92.8747 5.45916 92.6266C5.21105 92.4612 5.04565 92.2131 4.88024 91.965ZM5.21105 93.7018V94.1153H5.62456C5.62456 94.0326 5.62456 93.9499 5.62456 93.8672C5.54186 93.7018 5.37646 93.7018 5.21105 93.7018ZM6.12078 102.468C6.20348 102.137 6.12078 101.972 5.87267 101.972C5.78997 102.22 5.62456 102.634 6.12078 102.468ZM6.12078 96.3482C6.69969 96.7617 6.9478 97.5061 7.44401 98.0023C7.44401 97.8369 7.52672 97.6715 7.60942 97.5061C7.60942 97.4234 7.60942 97.258 7.52672 97.0926C7.44401 97.0926 7.44401 96.9272 7.44401 96.8445C7.19591 96.8445 7.19591 97.0099 6.9478 97.0926C6.61699 96.7617 6.53429 96.3482 6.45159 95.9347C6.28618 96.1001 6.20348 96.1828 6.12078 96.3482ZM9.34617 102.055C9.34617 101.972 9.34617 101.807 9.51157 101.724C9.42887 101.724 9.34617 101.641 9.34617 101.641C9.18076 101.062 9.01536 100.98 9.18076 100.483C9.09806 100.401 9.01536 100.401 8.93266 100.318C8.76725 100.318 8.68455 100.318 8.51915 100.401C8.51915 99.6563 7.94023 99.0774 7.69212 98.4985C7.27861 99.0774 8.10563 99.6563 7.85753 99.9871C7.19591 99.9871 7.94023 100.897 8.10563 101.31C8.84995 100.897 8.68455 101.972 9.34617 102.055ZM20.6764 119.257C21.4207 118.182 19.3532 117.603 19.105 116.445C18.9396 116.28 18.5261 116.197 18.4434 115.949C18.5261 115.452 17.8645 115.618 18.0299 115.039C17.3683 114.874 16.7894 114.625 16.7894 113.881C16.7067 113.716 16.2105 113.881 16.2105 113.633C16.0451 112.806 14.9699 112.723 14.9699 111.731C13.8948 111.4 13.6467 110.408 12.8197 109.911C12.9024 110.656 13.1505 111.317 13.4813 111.979C15.218 112.475 14.0602 114.791 16.0451 115.039C15.9624 115.452 16.3759 115.535 16.0451 115.783C17.1202 116.031 18.0299 116.776 18.1126 117.437C19.4359 117.603 19.684 118.761 20.6764 119.257ZM22.5785 120.58C22.4958 121.076 22.6612 121.324 23.1575 121.324C23.0748 120.994 22.8267 120.745 22.5785 120.58ZM30.8488 127.692C31.5104 128.023 32.4201 129.429 33.1644 128.768C32.9163 128.768 32.7509 128.685 32.5855 128.519C32.5855 128.437 32.6682 128.271 32.6682 128.189C32.172 128.023 31.5104 128.023 31.4277 127.196C30.9315 127.527 30.8488 127.527 30.4353 127.114C30.6007 126.865 30.4353 126.865 30.9315 126.865C30.6007 126.286 29.6909 126.7 29.1947 126.452C29.112 126.121 28.9466 125.79 28.6158 125.625C28.3677 125.708 28.1196 125.956 28.1196 126.286C29.112 126.369 29.6082 126.783 29.6082 127.692C30.2699 127.775 30.4353 127.858 30.8488 127.692ZM37.1342 132.158C37.1342 132.076 37.1342 131.993 37.2169 131.993C37.2169 131.828 37.2169 131.662 36.9688 131.745C37.0515 131.91 36.9688 132.158 37.1342 132.158ZM73.854 140.594H74.0194C74.0194 140.511 73.9367 140.429 73.9367 140.346H73.854H73.7713L73.854 140.594ZM82.9513 140.18L83.1994 140.098C83.1994 140.015 83.1167 139.932 83.1167 139.85L82.8686 139.932L82.9513 140.18ZM135.054 119.753C135.467 120.001 135.467 119.174 135.054 119.339V119.753ZM137.121 117.107C137.121 117.189 137.204 117.272 137.369 117.272C137.535 117.272 137.7 117.189 137.7 117.024C137.618 117.024 137.535 117.024 137.452 116.941C137.369 117.024 137.204 117.024 137.121 117.107ZM150.436 100.814C150.602 100.731 150.684 100.649 150.684 100.483C150.602 100.566 150.519 100.649 150.436 100.814Z" fill="white"/>
</g>
<defs>
<clipPath id="clip0_5_1176">
<rect width="153.828" height="140.594" fill="white"/>
</clipPath>
</defs>
</svg>
